G04 #@! TF.FileFunction,Copper,L1,Top,Signal*
%FSLAX46Y46*%
G04 Gerber Fmt 4.6, Leading zero omitted, Abs format (unit mm)*
G04 Created by KiCad (PCBNEW 4.0.7) date 12/02/17 21:13:14*
%MOMM*%
%LPD*%
G01*
G04 APERTURE LIST*
%ADD10C,0.100000*%
%ADD11R,1.397000X0.431800*%
%ADD12R,1.700000X0.900000*%
%ADD13R,4.000000X2.000000*%
%ADD14R,2.550000X2.700000*%
%ADD15R,1.270000X0.970000*%
%ADD16R,1.700000X1.700000*%
%ADD17O,1.700000X1.700000*%
%ADD18O,1.000000X1.000000*%
%ADD19C,0.600000*%
%ADD20C,0.250000*%
%ADD21C,0.300000*%
%ADD22C,0.254000*%
G04 APERTURE END LIST*
D10*
D11*
X141478000Y-107708700D03*
X141478000Y-108343700D03*
X141478000Y-109004100D03*
X141478000Y-109639100D03*
X141478000Y-110299500D03*
X141478000Y-110947200D03*
X141478000Y-111594900D03*
X147066000Y-111594900D03*
X147066000Y-110947200D03*
X147066000Y-110299500D03*
X147066000Y-109639100D03*
X147066000Y-108991400D03*
X147066000Y-108343700D03*
X147066000Y-107696000D03*
D12*
X131572000Y-104320000D03*
X131572000Y-101420000D03*
X134366000Y-106172000D03*
X134366000Y-103272000D03*
X131572000Y-105918000D03*
X131572000Y-108818000D03*
X151638000Y-107950000D03*
X151638000Y-110850000D03*
D13*
X126238000Y-98044000D03*
X126238000Y-100838000D03*
X126238000Y-103632000D03*
X126238000Y-106426000D03*
D14*
X147193000Y-98552000D03*
X140843000Y-98552000D03*
D15*
X148844000Y-111516000D03*
X148844000Y-110236000D03*
D16*
X150368000Y-105156000D03*
D17*
X150368000Y-102616000D03*
D18*
X147828000Y-105156000D03*
D17*
X147828000Y-102616000D03*
X145288000Y-105156000D03*
X145288000Y-102616000D03*
D18*
X142748000Y-105156000D03*
X142748000Y-102616000D03*
D17*
X140208000Y-105156000D03*
X140208000Y-102616000D03*
D18*
X137668000Y-105156000D03*
X137668000Y-102616000D03*
D19*
X138938000Y-96774000D03*
X146558000Y-106426000D03*
X142748000Y-106426000D03*
X146811996Y-103886000D03*
X152908000Y-112014000D03*
X150368000Y-112014000D03*
X144780000Y-110236000D03*
X143510000Y-109474000D03*
X140208000Y-112014000D03*
X136550775Y-104266739D03*
X136397994Y-108966000D03*
X152654000Y-105918020D03*
X152908000Y-108966000D03*
X129032010Y-103632000D03*
X148590000Y-109728000D03*
X138684000Y-101346000D03*
X133350000Y-108204000D03*
X134366000Y-104140000D03*
X129540000Y-107188000D03*
X129032000Y-101092000D03*
X129793996Y-99060000D03*
X144018000Y-101346000D03*
X144780000Y-111506000D03*
X144780000Y-108966000D03*
X130302000Y-98044000D03*
D20*
X151892000Y-107696000D02*
X151892000Y-103886000D01*
X151892000Y-103886000D02*
X150622000Y-102616000D01*
X150622000Y-102616000D02*
X150368000Y-102616000D01*
X147066000Y-109639100D02*
X146117500Y-109639100D01*
X146117500Y-109639100D02*
X145796000Y-109317600D01*
X145796000Y-109317600D02*
X145796000Y-107316410D01*
X146948998Y-107051002D02*
X147828000Y-106172000D01*
X147828000Y-106172000D02*
X148590000Y-106172000D01*
X148590000Y-106172000D02*
X149098000Y-105664000D01*
X145796000Y-107316410D02*
X146061408Y-107051002D01*
X146061408Y-107051002D02*
X146948998Y-107051002D01*
X149098000Y-105664000D02*
X149098000Y-100838000D01*
X149098000Y-100838000D02*
X147193000Y-98933000D01*
X147193000Y-98933000D02*
X147193000Y-98552000D01*
X138938000Y-96774000D02*
X139954000Y-96774000D01*
X139954000Y-96774000D02*
X140208000Y-97028000D01*
X140208000Y-97028000D02*
X140208000Y-97917000D01*
X140208000Y-97917000D02*
X140843000Y-98552000D01*
X131572000Y-104320000D02*
X133022000Y-104320000D01*
X133858000Y-105156000D02*
X135636000Y-105156000D01*
X133022000Y-104320000D02*
X133858000Y-105156000D01*
X135636000Y-105156000D02*
X137160000Y-106680000D01*
X137160000Y-106680000D02*
X139954000Y-106680000D01*
X139954000Y-106680000D02*
X140982700Y-107708700D01*
X140982700Y-107708700D02*
X141224000Y-107708700D01*
X141224000Y-107708700D02*
X141224000Y-107696000D01*
X127000000Y-100838000D02*
X127762000Y-100076000D01*
X127762000Y-100076000D02*
X129540000Y-100076000D01*
X129540000Y-100076000D02*
X130302000Y-100838000D01*
X130302000Y-100838000D02*
X130302000Y-103632000D01*
X130302000Y-103632000D02*
X130810000Y-104140000D01*
X130810000Y-104140000D02*
X131392000Y-104140000D01*
X131392000Y-104140000D02*
X131572000Y-104320000D01*
X141224000Y-108343700D02*
X140730110Y-108343700D01*
X140730110Y-108343700D02*
X139828410Y-107442000D01*
X139828410Y-107442000D02*
X136906000Y-107442000D01*
X136906000Y-107442000D02*
X135636000Y-106172000D01*
X135636000Y-106172000D02*
X133858000Y-106172000D01*
X133858000Y-106172000D02*
X132828999Y-105142999D01*
X132828999Y-105142999D02*
X128764999Y-105142999D01*
X128764999Y-105142999D02*
X127254000Y-103632000D01*
X127254000Y-103632000D02*
X126238000Y-103632000D01*
X127508000Y-103632000D02*
X127000000Y-103632000D01*
X141127910Y-108908010D02*
X141224000Y-109004100D01*
X141224000Y-109004100D02*
X140500100Y-109004100D01*
X140500100Y-109004100D02*
X139700000Y-108204000D01*
X139700000Y-108204000D02*
X136652000Y-108204000D01*
X136652000Y-108204000D02*
X135636000Y-107188000D01*
X135636000Y-107188000D02*
X133350000Y-107188000D01*
X133350000Y-107188000D02*
X132080000Y-105918000D01*
X132080000Y-105918000D02*
X131572000Y-105918000D01*
X127000000Y-106426000D02*
X127508000Y-105918000D01*
X127508000Y-105918000D02*
X131318000Y-105918000D01*
X131318000Y-105918000D02*
X131572000Y-105918000D01*
X146812000Y-105538411D02*
X146812000Y-106172000D01*
X146812000Y-106172000D02*
X146558000Y-106426000D01*
X146811996Y-103886000D02*
X146811996Y-106172004D01*
X146811996Y-106172004D02*
X146558000Y-106426000D01*
X142748000Y-106850264D02*
X142748000Y-106426000D01*
X142748000Y-109317600D02*
X142748000Y-106850264D01*
X142426500Y-109639100D02*
X142748000Y-109317600D01*
X141478000Y-109639100D02*
X142426500Y-109639100D01*
X142748000Y-106934000D02*
X142748000Y-106426000D01*
X141224000Y-109639100D02*
X141312900Y-109728000D01*
X146812000Y-107696000D02*
X149352000Y-107696000D01*
X149352000Y-107696000D02*
X151384000Y-109728000D01*
X151384000Y-109728000D02*
X152654000Y-109728000D01*
X152654000Y-109728000D02*
X152908000Y-109982000D01*
X152908000Y-109982000D02*
X152908000Y-111589736D01*
X152908000Y-111589736D02*
X152908000Y-112014000D01*
X149363290Y-108343700D02*
X151869590Y-110850000D01*
X146812000Y-108343700D02*
X149363290Y-108343700D01*
X150068001Y-109684822D02*
X150068001Y-111714001D01*
X149374579Y-108991400D02*
X150068001Y-109684822D01*
X146812000Y-108991400D02*
X149374579Y-108991400D01*
X150068001Y-111714001D02*
X150368000Y-112014000D01*
X143510000Y-109474000D02*
X144018000Y-109474000D01*
X144018000Y-109474000D02*
X144780000Y-110236000D01*
X145288000Y-105156000D02*
X143510000Y-106934000D01*
X143510000Y-106934000D02*
X143510000Y-109049736D01*
X143510000Y-110744000D02*
X143510000Y-109474000D01*
X143510000Y-109049736D02*
X143510000Y-109474000D01*
X131572000Y-108818000D02*
X130154000Y-108818000D01*
X130154000Y-108818000D02*
X130048000Y-108712000D01*
X130048000Y-108712000D02*
X130048000Y-107696000D01*
X130048000Y-107696000D02*
X129540000Y-107188000D01*
X140208000Y-111589736D02*
X140208000Y-112014000D01*
X140208000Y-111252000D02*
X140208000Y-111589736D01*
X139954000Y-110998000D02*
X140208000Y-111252000D01*
X148590000Y-109728000D02*
X148590000Y-109982000D01*
X148590000Y-109982000D02*
X148844000Y-110236000D01*
X141224000Y-110299500D02*
X143319500Y-110299500D01*
X143319500Y-110299500D02*
X143510000Y-110490000D01*
X143510000Y-110490000D02*
X143510000Y-110744000D01*
X141224000Y-110947200D02*
X143306800Y-110947200D01*
X143306800Y-110947200D02*
X143510000Y-110744000D01*
X138684000Y-101346000D02*
X144018000Y-101346000D01*
X136122739Y-104266739D02*
X136126511Y-104266739D01*
X134218000Y-102362000D02*
X136122739Y-104266739D01*
X136126511Y-104266739D02*
X136550775Y-104266739D01*
X136822258Y-108966000D02*
X136397994Y-108966000D01*
X138938000Y-108966000D02*
X136822258Y-108966000D01*
X139954000Y-109982000D02*
X138938000Y-108966000D01*
X135382000Y-108204000D02*
X136144000Y-108966000D01*
X136144000Y-108966000D02*
X136397994Y-108966000D01*
X137414000Y-108966000D02*
X136397994Y-108966000D01*
X152953999Y-106218019D02*
X152654000Y-105918020D01*
X153207999Y-106472019D02*
X152953999Y-106218019D01*
X153207999Y-108666001D02*
X153207999Y-106472019D01*
X152908000Y-108966000D02*
X153207999Y-108666001D01*
X129032000Y-103631990D02*
X129032010Y-103632000D01*
X129032000Y-101092000D02*
X129032000Y-103631990D01*
X133350000Y-108204000D02*
X135382000Y-108204000D01*
X139954000Y-109982000D02*
X139954000Y-110998000D01*
X139954000Y-110998000D02*
X140004800Y-110947200D01*
X140004800Y-110947200D02*
X141224000Y-110947200D01*
X134112000Y-102362000D02*
X134218000Y-102362000D01*
X134218000Y-102362000D02*
X134366000Y-102510000D01*
X131572000Y-101346000D02*
X133096000Y-101346000D01*
X133096000Y-101346000D02*
X134112000Y-102362000D01*
X133350000Y-108204000D02*
X133350000Y-108458000D01*
X133350000Y-108458000D02*
X132990000Y-108818000D01*
X132990000Y-108818000D02*
X131572000Y-108818000D01*
X141224000Y-110299500D02*
X140271500Y-110299500D01*
X140271500Y-110299500D02*
X139954000Y-109982000D01*
X141224000Y-110947200D02*
X141224000Y-110299500D01*
X134620000Y-103969736D02*
X134449736Y-104140000D01*
X134449736Y-104140000D02*
X134366000Y-104140000D01*
X134366000Y-102510000D02*
X134366000Y-102870000D01*
X134366000Y-102870000D02*
X134620000Y-103124000D01*
X134620000Y-103124000D02*
X134620000Y-103969736D01*
X134620000Y-103886000D02*
X134620000Y-103969736D01*
X130093995Y-99359999D02*
X129793996Y-99060000D01*
X131572000Y-100838004D02*
X130093995Y-99359999D01*
X131572000Y-101346000D02*
X131572000Y-100838004D01*
X131572000Y-101346000D02*
X131826000Y-101600000D01*
X145338800Y-110947200D02*
X147066000Y-110947200D01*
X144780000Y-111506000D02*
X145525000Y-112251000D01*
X145525000Y-112251000D02*
X148109000Y-112251000D01*
X148109000Y-112251000D02*
X148844000Y-111516000D01*
X144780000Y-111506000D02*
X145338800Y-110947200D01*
D21*
X144780000Y-109012000D02*
X144780000Y-108966000D01*
X147066000Y-110299500D02*
X146067500Y-110299500D01*
X146067500Y-110299500D02*
X144780000Y-109012000D01*
D20*
X127000000Y-98044000D02*
X130302000Y-98044000D01*
X129250000Y-98044000D02*
X130302000Y-98044000D01*
D22*
G36*
X138406765Y-96418369D02*
X138311109Y-96648735D01*
X138310891Y-96898171D01*
X138406145Y-97128703D01*
X138582369Y-97305235D01*
X138812735Y-97400891D01*
X139062171Y-97401109D01*
X139234594Y-97329865D01*
X139234594Y-99902000D01*
X139257395Y-100023179D01*
X139329012Y-100134474D01*
X139438286Y-100209138D01*
X139568000Y-100235406D01*
X142118000Y-100235406D01*
X142239179Y-100212605D01*
X142350474Y-100140988D01*
X142425138Y-100031714D01*
X142451406Y-99902000D01*
X142451406Y-97202000D01*
X142428605Y-97080821D01*
X142356988Y-96969526D01*
X142247714Y-96894862D01*
X142118000Y-96868594D01*
X140628293Y-96868594D01*
X140625594Y-96855027D01*
X140527612Y-96708388D01*
X140273612Y-96454388D01*
X140213168Y-96414000D01*
X149316254Y-96414000D01*
X150232650Y-99163186D01*
X150323869Y-99621777D01*
X150346356Y-99676066D01*
X150363330Y-99732323D01*
X150831529Y-100611418D01*
X150930854Y-100732815D01*
X151699826Y-101365818D01*
X151699828Y-101365821D01*
X151723785Y-101378672D01*
X151838050Y-101439968D01*
X151838055Y-101439968D01*
X152790731Y-101730515D01*
X152849786Y-101736421D01*
X152908000Y-101748000D01*
X153268000Y-101748000D01*
X153268000Y-109722832D01*
X153227612Y-109662388D01*
X152973612Y-109408388D01*
X152826973Y-109310406D01*
X152654000Y-109276000D01*
X151571224Y-109276000D01*
X151028630Y-108733406D01*
X152488000Y-108733406D01*
X152609179Y-108710605D01*
X152720474Y-108638988D01*
X152795138Y-108529714D01*
X152821406Y-108400000D01*
X152821406Y-107500000D01*
X152798605Y-107378821D01*
X152726988Y-107267526D01*
X152617714Y-107192862D01*
X152488000Y-107166594D01*
X152344000Y-107166594D01*
X152344000Y-103886000D01*
X152309594Y-103713027D01*
X152211612Y-103566388D01*
X151501744Y-102856520D01*
X151545000Y-102639059D01*
X151545000Y-102592941D01*
X151455406Y-102142523D01*
X151200265Y-101760676D01*
X150818418Y-101505535D01*
X150368000Y-101415941D01*
X149917582Y-101505535D01*
X149550000Y-101751144D01*
X149550000Y-100838000D01*
X149515594Y-100665027D01*
X149417612Y-100518388D01*
X148801375Y-99902151D01*
X148801406Y-99902000D01*
X148801406Y-97202000D01*
X148778605Y-97080821D01*
X148706988Y-96969526D01*
X148597714Y-96894862D01*
X148468000Y-96868594D01*
X145918000Y-96868594D01*
X145796821Y-96891395D01*
X145685526Y-96963012D01*
X145610862Y-97072286D01*
X145584594Y-97202000D01*
X145584594Y-99902000D01*
X145607395Y-100023179D01*
X145679012Y-100134474D01*
X145788286Y-100209138D01*
X145918000Y-100235406D01*
X147856182Y-100235406D01*
X148646000Y-101025224D01*
X148646000Y-101751144D01*
X148278418Y-101505535D01*
X147828000Y-101415941D01*
X147377582Y-101505535D01*
X146995735Y-101760676D01*
X146740594Y-102142523D01*
X146651000Y-102592941D01*
X146651000Y-102639059D01*
X146740594Y-103089477D01*
X146853889Y-103259036D01*
X146687825Y-103258891D01*
X146457293Y-103354145D01*
X146280761Y-103530369D01*
X146185105Y-103760735D01*
X146184887Y-104010171D01*
X146280141Y-104240703D01*
X146359996Y-104320698D01*
X146359996Y-104496601D01*
X146305076Y-104383786D01*
X145932142Y-104053349D01*
X145612213Y-103920842D01*
X145415000Y-103992662D01*
X145415000Y-105029000D01*
X145435000Y-105029000D01*
X145435000Y-105283000D01*
X145415000Y-105283000D01*
X145415000Y-106319338D01*
X145612213Y-106391158D01*
X145932142Y-106258651D01*
X145958154Y-106235603D01*
X145931109Y-106300735D01*
X145930891Y-106550171D01*
X145959448Y-106619283D01*
X145888435Y-106633408D01*
X145741796Y-106731389D01*
X145476388Y-106996798D01*
X145378406Y-107143437D01*
X145344000Y-107316410D01*
X145344000Y-108689094D01*
X145311855Y-108611297D01*
X145135631Y-108434765D01*
X144905265Y-108339109D01*
X144655829Y-108338891D01*
X144425297Y-108434145D01*
X144248765Y-108610369D01*
X144153109Y-108840735D01*
X144152891Y-109090171D01*
X144248145Y-109320703D01*
X144424369Y-109497235D01*
X144654735Y-109592891D01*
X144686339Y-109592919D01*
X145588620Y-110495200D01*
X145338800Y-110495200D01*
X145165827Y-110529606D01*
X145019188Y-110627587D01*
X144767787Y-110878989D01*
X144655829Y-110878891D01*
X144425297Y-110974145D01*
X144248765Y-111150369D01*
X144153109Y-111380735D01*
X144152891Y-111630171D01*
X144248145Y-111860703D01*
X144424369Y-112037235D01*
X144654735Y-112132891D01*
X144767766Y-112132990D01*
X145008776Y-112374000D01*
X139848000Y-112374000D01*
X139848000Y-111161900D01*
X140352500Y-111161900D01*
X140352500Y-111248035D01*
X140417507Y-111404976D01*
X140446094Y-111433563D01*
X140446094Y-111810800D01*
X140468895Y-111931979D01*
X140540512Y-112043274D01*
X140649786Y-112117938D01*
X140779500Y-112144206D01*
X142176500Y-112144206D01*
X142297679Y-112121405D01*
X142408974Y-112049788D01*
X142483638Y-111940514D01*
X142509906Y-111810800D01*
X142509906Y-111433563D01*
X142538493Y-111404976D01*
X142603500Y-111248035D01*
X142603500Y-111161900D01*
X142496750Y-111055150D01*
X142223688Y-111055150D01*
X142176500Y-111045594D01*
X140779500Y-111045594D01*
X140728713Y-111055150D01*
X140459250Y-111055150D01*
X140352500Y-111161900D01*
X139848000Y-111161900D01*
X139848000Y-110514200D01*
X140352500Y-110514200D01*
X140352500Y-110600335D01*
X140362033Y-110623350D01*
X140352500Y-110646365D01*
X140352500Y-110732500D01*
X140459250Y-110839250D01*
X140499481Y-110839250D01*
X140537624Y-110877393D01*
X140694564Y-110942400D01*
X141244250Y-110942400D01*
X141347400Y-110839250D01*
X141351000Y-110839250D01*
X141351000Y-110407450D01*
X141605000Y-110407450D01*
X141605000Y-110839250D01*
X141608600Y-110839250D01*
X141711750Y-110942400D01*
X142261436Y-110942400D01*
X142418376Y-110877393D01*
X142456519Y-110839250D01*
X142496750Y-110839250D01*
X142603500Y-110732500D01*
X142603500Y-110646365D01*
X142593967Y-110623350D01*
X142603500Y-110600335D01*
X142603500Y-110514200D01*
X142496750Y-110407450D01*
X142456519Y-110407450D01*
X142418376Y-110369307D01*
X142261436Y-110304300D01*
X141711750Y-110304300D01*
X141608600Y-110407450D01*
X141605000Y-110407450D01*
X141351000Y-110407450D01*
X141347400Y-110407450D01*
X141244250Y-110304300D01*
X140694564Y-110304300D01*
X140537624Y-110369307D01*
X140499481Y-110407450D01*
X140459250Y-110407450D01*
X140352500Y-110514200D01*
X139848000Y-110514200D01*
X139848000Y-109728000D01*
X139817400Y-109574161D01*
X139730257Y-109443743D01*
X139599839Y-109356600D01*
X139446000Y-109326000D01*
X132849000Y-109326000D01*
X132849000Y-109051750D01*
X132742250Y-108945000D01*
X131699000Y-108945000D01*
X131699000Y-108965000D01*
X131445000Y-108965000D01*
X131445000Y-108945000D01*
X130401750Y-108945000D01*
X130295000Y-109051750D01*
X130295000Y-109326000D01*
X129434000Y-109326000D01*
X129434000Y-108283065D01*
X130295000Y-108283065D01*
X130295000Y-108584250D01*
X130401750Y-108691000D01*
X131445000Y-108691000D01*
X131445000Y-108047750D01*
X131699000Y-108047750D01*
X131699000Y-108691000D01*
X132742250Y-108691000D01*
X132849000Y-108584250D01*
X132849000Y-108283065D01*
X132783993Y-108126124D01*
X132663876Y-108006007D01*
X132506936Y-107941000D01*
X131805750Y-107941000D01*
X131699000Y-108047750D01*
X131445000Y-108047750D01*
X131338250Y-107941000D01*
X130637064Y-107941000D01*
X130480124Y-108006007D01*
X130360007Y-108126124D01*
X130295000Y-108283065D01*
X129434000Y-108283065D01*
X129434000Y-108204000D01*
X129403400Y-108050161D01*
X129316257Y-107919743D01*
X129185839Y-107832600D01*
X129032000Y-107802000D01*
X124100000Y-107802000D01*
X124100000Y-107727476D01*
X124108286Y-107733138D01*
X124238000Y-107759406D01*
X128238000Y-107759406D01*
X128359179Y-107736605D01*
X128470474Y-107664988D01*
X128545138Y-107555714D01*
X128571406Y-107426000D01*
X128571406Y-106370000D01*
X130388970Y-106370000D01*
X130411395Y-106489179D01*
X130483012Y-106600474D01*
X130592286Y-106675138D01*
X130722000Y-106701406D01*
X132224182Y-106701406D01*
X133030388Y-107507612D01*
X133177027Y-107605594D01*
X133350000Y-107640000D01*
X135448776Y-107640000D01*
X136332388Y-108523612D01*
X136479027Y-108621594D01*
X136652000Y-108656000D01*
X139512776Y-108656000D01*
X140180488Y-109323712D01*
X140327127Y-109421694D01*
X140446094Y-109445358D01*
X140446094Y-109813137D01*
X140417507Y-109841724D01*
X140352500Y-109998665D01*
X140352500Y-110084800D01*
X140459250Y-110191550D01*
X141351000Y-110191550D01*
X141351000Y-110188406D01*
X141605000Y-110188406D01*
X141605000Y-110191550D01*
X142496750Y-110191550D01*
X142603500Y-110084800D01*
X142603500Y-110054003D01*
X142746112Y-109958712D01*
X143067613Y-109637212D01*
X143165594Y-109490573D01*
X143200000Y-109317600D01*
X143200000Y-106860728D01*
X143279235Y-106781631D01*
X143374891Y-106551265D01*
X143375109Y-106301829D01*
X143279855Y-106071297D01*
X143112808Y-105903958D01*
X143332777Y-105756979D01*
X143512048Y-105488681D01*
X143513732Y-105480215D01*
X144052831Y-105480215D01*
X144270924Y-105928214D01*
X144643858Y-106258651D01*
X144963787Y-106391158D01*
X145161000Y-106319338D01*
X145161000Y-105283000D01*
X144124070Y-105283000D01*
X144052831Y-105480215D01*
X143513732Y-105480215D01*
X143575000Y-105172202D01*
X143575000Y-105139798D01*
X143513733Y-104831785D01*
X144052831Y-104831785D01*
X144124070Y-105029000D01*
X145161000Y-105029000D01*
X145161000Y-103992662D01*
X144963787Y-103920842D01*
X144643858Y-104053349D01*
X144270924Y-104383786D01*
X144052831Y-104831785D01*
X143513733Y-104831785D01*
X143512048Y-104823319D01*
X143332777Y-104555021D01*
X143064479Y-104375750D01*
X142748000Y-104312798D01*
X142431521Y-104375750D01*
X142163223Y-104555021D01*
X141983952Y-104823319D01*
X141921000Y-105139798D01*
X141921000Y-105172202D01*
X141983952Y-105488681D01*
X142163223Y-105756979D01*
X142383357Y-105904068D01*
X142216765Y-106070369D01*
X142121109Y-106300735D01*
X142120891Y-106550171D01*
X142216145Y-106780703D01*
X142296000Y-106860698D01*
X142296000Y-107183594D01*
X142176500Y-107159394D01*
X141072619Y-107159394D01*
X140273612Y-106360388D01*
X140253568Y-106346995D01*
X140658418Y-106266465D01*
X141040265Y-106011324D01*
X141295406Y-105629477D01*
X141385000Y-105179059D01*
X141385000Y-105132941D01*
X141295406Y-104682523D01*
X141040265Y-104300676D01*
X140658418Y-104045535D01*
X140208000Y-103955941D01*
X139757582Y-104045535D01*
X139375735Y-104300676D01*
X139120594Y-104682523D01*
X139031000Y-105132941D01*
X139031000Y-105179059D01*
X139120594Y-105629477D01*
X139375735Y-106011324D01*
X139700015Y-106228000D01*
X137347225Y-106228000D01*
X136259023Y-105139798D01*
X136841000Y-105139798D01*
X136841000Y-105172202D01*
X136903952Y-105488681D01*
X137083223Y-105756979D01*
X137351521Y-105936250D01*
X137668000Y-105999202D01*
X137984479Y-105936250D01*
X138252777Y-105756979D01*
X138432048Y-105488681D01*
X138495000Y-105172202D01*
X138495000Y-105139798D01*
X138432048Y-104823319D01*
X138252777Y-104555021D01*
X137984479Y-104375750D01*
X137668000Y-104312798D01*
X137351521Y-104375750D01*
X137083223Y-104555021D01*
X136903952Y-104823319D01*
X136841000Y-105139798D01*
X136259023Y-105139798D01*
X135955612Y-104836388D01*
X135808973Y-104738406D01*
X135636000Y-104704000D01*
X134045225Y-104704000D01*
X133490224Y-104149000D01*
X134132250Y-104149000D01*
X134239000Y-104042250D01*
X134239000Y-103399000D01*
X134493000Y-103399000D01*
X134493000Y-104042250D01*
X134599750Y-104149000D01*
X135300936Y-104149000D01*
X135457876Y-104083993D01*
X135577993Y-103963876D01*
X135643000Y-103806935D01*
X135643000Y-103505750D01*
X135536250Y-103399000D01*
X134493000Y-103399000D01*
X134239000Y-103399000D01*
X133195750Y-103399000D01*
X133089000Y-103505750D01*
X133089000Y-103806935D01*
X133122581Y-103888007D01*
X133022000Y-103868000D01*
X132755030Y-103868000D01*
X132732605Y-103748821D01*
X132660988Y-103637526D01*
X132551714Y-103562862D01*
X132422000Y-103536594D01*
X130845818Y-103536594D01*
X130754000Y-103444776D01*
X130754000Y-102737065D01*
X133089000Y-102737065D01*
X133089000Y-103038250D01*
X133195750Y-103145000D01*
X134239000Y-103145000D01*
X134239000Y-102501750D01*
X134493000Y-102501750D01*
X134493000Y-103145000D01*
X135536250Y-103145000D01*
X135643000Y-103038250D01*
X135643000Y-102737065D01*
X135586143Y-102599798D01*
X136841000Y-102599798D01*
X136841000Y-102632202D01*
X136903952Y-102948681D01*
X137083223Y-103216979D01*
X137351521Y-103396250D01*
X137668000Y-103459202D01*
X137984479Y-103396250D01*
X138252777Y-103216979D01*
X138432048Y-102948681D01*
X138495000Y-102632202D01*
X138495000Y-102599798D01*
X138493637Y-102592941D01*
X139031000Y-102592941D01*
X139031000Y-102639059D01*
X139120594Y-103089477D01*
X139375735Y-103471324D01*
X139757582Y-103726465D01*
X140208000Y-103816059D01*
X140658418Y-103726465D01*
X141040265Y-103471324D01*
X141295406Y-103089477D01*
X141385000Y-102639059D01*
X141385000Y-102599798D01*
X141921000Y-102599798D01*
X141921000Y-102632202D01*
X141983952Y-102948681D01*
X142163223Y-103216979D01*
X142431521Y-103396250D01*
X142748000Y-103459202D01*
X143064479Y-103396250D01*
X143332777Y-103216979D01*
X143512048Y-102948681D01*
X143513732Y-102940215D01*
X144052831Y-102940215D01*
X144270924Y-103388214D01*
X144643858Y-103718651D01*
X144963787Y-103851158D01*
X145161000Y-103779338D01*
X145161000Y-102743000D01*
X145415000Y-102743000D01*
X145415000Y-103779338D01*
X145612213Y-103851158D01*
X145932142Y-103718651D01*
X146305076Y-103388214D01*
X146523169Y-102940215D01*
X146451930Y-102743000D01*
X145415000Y-102743000D01*
X145161000Y-102743000D01*
X144124070Y-102743000D01*
X144052831Y-102940215D01*
X143513732Y-102940215D01*
X143575000Y-102632202D01*
X143575000Y-102599798D01*
X143513733Y-102291785D01*
X144052831Y-102291785D01*
X144124070Y-102489000D01*
X145161000Y-102489000D01*
X145161000Y-101452662D01*
X145415000Y-101452662D01*
X145415000Y-102489000D01*
X146451930Y-102489000D01*
X146523169Y-102291785D01*
X146305076Y-101843786D01*
X145932142Y-101513349D01*
X145612213Y-101380842D01*
X145415000Y-101452662D01*
X145161000Y-101452662D01*
X144963787Y-101380842D01*
X144643858Y-101513349D01*
X144270924Y-101843786D01*
X144052831Y-102291785D01*
X143513733Y-102291785D01*
X143512048Y-102283319D01*
X143332777Y-102015021D01*
X143064479Y-101835750D01*
X142748000Y-101772798D01*
X142431521Y-101835750D01*
X142163223Y-102015021D01*
X141983952Y-102283319D01*
X141921000Y-102599798D01*
X141385000Y-102599798D01*
X141385000Y-102592941D01*
X141295406Y-102142523D01*
X141040265Y-101760676D01*
X140658418Y-101505535D01*
X140208000Y-101415941D01*
X139757582Y-101505535D01*
X139375735Y-101760676D01*
X139120594Y-102142523D01*
X139031000Y-102592941D01*
X138493637Y-102592941D01*
X138432048Y-102283319D01*
X138252777Y-102015021D01*
X137984479Y-101835750D01*
X137668000Y-101772798D01*
X137351521Y-101835750D01*
X137083223Y-102015021D01*
X136903952Y-102283319D01*
X136841000Y-102599798D01*
X135586143Y-102599798D01*
X135577993Y-102580124D01*
X135457876Y-102460007D01*
X135300936Y-102395000D01*
X134599750Y-102395000D01*
X134493000Y-102501750D01*
X134239000Y-102501750D01*
X134132250Y-102395000D01*
X133431064Y-102395000D01*
X133274124Y-102460007D01*
X133154007Y-102580124D01*
X133089000Y-102737065D01*
X130754000Y-102737065D01*
X130754000Y-102297000D01*
X131338250Y-102297000D01*
X131445000Y-102190250D01*
X131445000Y-101547000D01*
X131699000Y-101547000D01*
X131699000Y-102190250D01*
X131805750Y-102297000D01*
X132506936Y-102297000D01*
X132663876Y-102231993D01*
X132783993Y-102111876D01*
X132849000Y-101954935D01*
X132849000Y-101653750D01*
X132742250Y-101547000D01*
X131699000Y-101547000D01*
X131445000Y-101547000D01*
X131425000Y-101547000D01*
X131425000Y-101293000D01*
X131445000Y-101293000D01*
X131445000Y-100649750D01*
X131699000Y-100649750D01*
X131699000Y-101293000D01*
X132742250Y-101293000D01*
X132849000Y-101186250D01*
X132849000Y-100885065D01*
X132783993Y-100728124D01*
X132663876Y-100608007D01*
X132506936Y-100543000D01*
X131805750Y-100543000D01*
X131699000Y-100649750D01*
X131445000Y-100649750D01*
X131338250Y-100543000D01*
X130638057Y-100543000D01*
X130621612Y-100518388D01*
X129859612Y-99756388D01*
X129712973Y-99658406D01*
X129540000Y-99624000D01*
X128488876Y-99624000D01*
X128476988Y-99605526D01*
X128367714Y-99530862D01*
X128238000Y-99504594D01*
X124238000Y-99504594D01*
X124116821Y-99527395D01*
X124100000Y-99538219D01*
X124100000Y-99345476D01*
X124108286Y-99351138D01*
X124238000Y-99377406D01*
X128238000Y-99377406D01*
X128359179Y-99354605D01*
X128470474Y-99282988D01*
X128545138Y-99173714D01*
X128571406Y-99044000D01*
X128571406Y-98496000D01*
X129867272Y-98496000D01*
X129946369Y-98575235D01*
X130176735Y-98670891D01*
X130426171Y-98671109D01*
X130656703Y-98575855D01*
X130833235Y-98399631D01*
X130928891Y-98169265D01*
X130929109Y-97919829D01*
X130833855Y-97689297D01*
X130657631Y-97512765D01*
X130427265Y-97417109D01*
X130177829Y-97416891D01*
X129947297Y-97512145D01*
X129867302Y-97592000D01*
X128571406Y-97592000D01*
X128571406Y-97044000D01*
X128548605Y-96922821D01*
X128548077Y-96922000D01*
X131290428Y-96922000D01*
X132210203Y-99451381D01*
X132214852Y-99459047D01*
X132216600Y-99467837D01*
X132421733Y-99963074D01*
X132454882Y-100012686D01*
X132483167Y-100065214D01*
X133142019Y-100863024D01*
X133142021Y-100863027D01*
X133191754Y-100903587D01*
X133263575Y-100962162D01*
X133263579Y-100962163D01*
X134177587Y-101447112D01*
X134327825Y-101492184D01*
X134327830Y-101492184D01*
X135357839Y-101590442D01*
X135357844Y-101590443D01*
X135435869Y-101582516D01*
X135513894Y-101574590D01*
X135513898Y-101574588D01*
X136503105Y-101271198D01*
X136503110Y-101271198D01*
X136582526Y-101228435D01*
X136641215Y-101196834D01*
X136641220Y-101196828D01*
X137439024Y-100537981D01*
X137439027Y-100537979D01*
X137501603Y-100461251D01*
X137538162Y-100416425D01*
X137538163Y-100416421D01*
X138023112Y-99502413D01*
X138024189Y-99498821D01*
X138026507Y-99495871D01*
X138046686Y-99423836D01*
X138068184Y-99352175D01*
X138067805Y-99348442D01*
X138068816Y-99344832D01*
X138294265Y-96414000D01*
X138411142Y-96414000D01*
X138406765Y-96418369D01*
X138406765Y-96418369D01*
G37*
X138406765Y-96418369D02*
X138311109Y-96648735D01*
X138310891Y-96898171D01*
X138406145Y-97128703D01*
X138582369Y-97305235D01*
X138812735Y-97400891D01*
X139062171Y-97401109D01*
X139234594Y-97329865D01*
X139234594Y-99902000D01*
X139257395Y-100023179D01*
X139329012Y-100134474D01*
X139438286Y-100209138D01*
X139568000Y-100235406D01*
X142118000Y-100235406D01*
X142239179Y-100212605D01*
X142350474Y-100140988D01*
X142425138Y-100031714D01*
X142451406Y-99902000D01*
X142451406Y-97202000D01*
X142428605Y-97080821D01*
X142356988Y-96969526D01*
X142247714Y-96894862D01*
X142118000Y-96868594D01*
X140628293Y-96868594D01*
X140625594Y-96855027D01*
X140527612Y-96708388D01*
X140273612Y-96454388D01*
X140213168Y-96414000D01*
X149316254Y-96414000D01*
X150232650Y-99163186D01*
X150323869Y-99621777D01*
X150346356Y-99676066D01*
X150363330Y-99732323D01*
X150831529Y-100611418D01*
X150930854Y-100732815D01*
X151699826Y-101365818D01*
X151699828Y-101365821D01*
X151723785Y-101378672D01*
X151838050Y-101439968D01*
X151838055Y-101439968D01*
X152790731Y-101730515D01*
X152849786Y-101736421D01*
X152908000Y-101748000D01*
X153268000Y-101748000D01*
X153268000Y-109722832D01*
X153227612Y-109662388D01*
X152973612Y-109408388D01*
X152826973Y-109310406D01*
X152654000Y-109276000D01*
X151571224Y-109276000D01*
X151028630Y-108733406D01*
X152488000Y-108733406D01*
X152609179Y-108710605D01*
X152720474Y-108638988D01*
X152795138Y-108529714D01*
X152821406Y-108400000D01*
X152821406Y-107500000D01*
X152798605Y-107378821D01*
X152726988Y-107267526D01*
X152617714Y-107192862D01*
X152488000Y-107166594D01*
X152344000Y-107166594D01*
X152344000Y-103886000D01*
X152309594Y-103713027D01*
X152211612Y-103566388D01*
X151501744Y-102856520D01*
X151545000Y-102639059D01*
X151545000Y-102592941D01*
X151455406Y-102142523D01*
X151200265Y-101760676D01*
X150818418Y-101505535D01*
X150368000Y-101415941D01*
X149917582Y-101505535D01*
X149550000Y-101751144D01*
X149550000Y-100838000D01*
X149515594Y-100665027D01*
X149417612Y-100518388D01*
X148801375Y-99902151D01*
X148801406Y-99902000D01*
X148801406Y-97202000D01*
X148778605Y-97080821D01*
X148706988Y-96969526D01*
X148597714Y-96894862D01*
X148468000Y-96868594D01*
X145918000Y-96868594D01*
X145796821Y-96891395D01*
X145685526Y-96963012D01*
X145610862Y-97072286D01*
X145584594Y-97202000D01*
X145584594Y-99902000D01*
X145607395Y-100023179D01*
X145679012Y-100134474D01*
X145788286Y-100209138D01*
X145918000Y-100235406D01*
X147856182Y-100235406D01*
X148646000Y-101025224D01*
X148646000Y-101751144D01*
X148278418Y-101505535D01*
X147828000Y-101415941D01*
X147377582Y-101505535D01*
X146995735Y-101760676D01*
X146740594Y-102142523D01*
X146651000Y-102592941D01*
X146651000Y-102639059D01*
X146740594Y-103089477D01*
X146853889Y-103259036D01*
X146687825Y-103258891D01*
X146457293Y-103354145D01*
X146280761Y-103530369D01*
X146185105Y-103760735D01*
X146184887Y-104010171D01*
X146280141Y-104240703D01*
X146359996Y-104320698D01*
X146359996Y-104496601D01*
X146305076Y-104383786D01*
X145932142Y-104053349D01*
X145612213Y-103920842D01*
X145415000Y-103992662D01*
X145415000Y-105029000D01*
X145435000Y-105029000D01*
X145435000Y-105283000D01*
X145415000Y-105283000D01*
X145415000Y-106319338D01*
X145612213Y-106391158D01*
X145932142Y-106258651D01*
X145958154Y-106235603D01*
X145931109Y-106300735D01*
X145930891Y-106550171D01*
X145959448Y-106619283D01*
X145888435Y-106633408D01*
X145741796Y-106731389D01*
X145476388Y-106996798D01*
X145378406Y-107143437D01*
X145344000Y-107316410D01*
X145344000Y-108689094D01*
X145311855Y-108611297D01*
X145135631Y-108434765D01*
X144905265Y-108339109D01*
X144655829Y-108338891D01*
X144425297Y-108434145D01*
X144248765Y-108610369D01*
X144153109Y-108840735D01*
X144152891Y-109090171D01*
X144248145Y-109320703D01*
X144424369Y-109497235D01*
X144654735Y-109592891D01*
X144686339Y-109592919D01*
X145588620Y-110495200D01*
X145338800Y-110495200D01*
X145165827Y-110529606D01*
X145019188Y-110627587D01*
X144767787Y-110878989D01*
X144655829Y-110878891D01*
X144425297Y-110974145D01*
X144248765Y-111150369D01*
X144153109Y-111380735D01*
X144152891Y-111630171D01*
X144248145Y-111860703D01*
X144424369Y-112037235D01*
X144654735Y-112132891D01*
X144767766Y-112132990D01*
X145008776Y-112374000D01*
X139848000Y-112374000D01*
X139848000Y-111161900D01*
X140352500Y-111161900D01*
X140352500Y-111248035D01*
X140417507Y-111404976D01*
X140446094Y-111433563D01*
X140446094Y-111810800D01*
X140468895Y-111931979D01*
X140540512Y-112043274D01*
X140649786Y-112117938D01*
X140779500Y-112144206D01*
X142176500Y-112144206D01*
X142297679Y-112121405D01*
X142408974Y-112049788D01*
X142483638Y-111940514D01*
X142509906Y-111810800D01*
X142509906Y-111433563D01*
X142538493Y-111404976D01*
X142603500Y-111248035D01*
X142603500Y-111161900D01*
X142496750Y-111055150D01*
X142223688Y-111055150D01*
X142176500Y-111045594D01*
X140779500Y-111045594D01*
X140728713Y-111055150D01*
X140459250Y-111055150D01*
X140352500Y-111161900D01*
X139848000Y-111161900D01*
X139848000Y-110514200D01*
X140352500Y-110514200D01*
X140352500Y-110600335D01*
X140362033Y-110623350D01*
X140352500Y-110646365D01*
X140352500Y-110732500D01*
X140459250Y-110839250D01*
X140499481Y-110839250D01*
X140537624Y-110877393D01*
X140694564Y-110942400D01*
X141244250Y-110942400D01*
X141347400Y-110839250D01*
X141351000Y-110839250D01*
X141351000Y-110407450D01*
X141605000Y-110407450D01*
X141605000Y-110839250D01*
X141608600Y-110839250D01*
X141711750Y-110942400D01*
X142261436Y-110942400D01*
X142418376Y-110877393D01*
X142456519Y-110839250D01*
X142496750Y-110839250D01*
X142603500Y-110732500D01*
X142603500Y-110646365D01*
X142593967Y-110623350D01*
X142603500Y-110600335D01*
X142603500Y-110514200D01*
X142496750Y-110407450D01*
X142456519Y-110407450D01*
X142418376Y-110369307D01*
X142261436Y-110304300D01*
X141711750Y-110304300D01*
X141608600Y-110407450D01*
X141605000Y-110407450D01*
X141351000Y-110407450D01*
X141347400Y-110407450D01*
X141244250Y-110304300D01*
X140694564Y-110304300D01*
X140537624Y-110369307D01*
X140499481Y-110407450D01*
X140459250Y-110407450D01*
X140352500Y-110514200D01*
X139848000Y-110514200D01*
X139848000Y-109728000D01*
X139817400Y-109574161D01*
X139730257Y-109443743D01*
X139599839Y-109356600D01*
X139446000Y-109326000D01*
X132849000Y-109326000D01*
X132849000Y-109051750D01*
X132742250Y-108945000D01*
X131699000Y-108945000D01*
X131699000Y-108965000D01*
X131445000Y-108965000D01*
X131445000Y-108945000D01*
X130401750Y-108945000D01*
X130295000Y-109051750D01*
X130295000Y-109326000D01*
X129434000Y-109326000D01*
X129434000Y-108283065D01*
X130295000Y-108283065D01*
X130295000Y-108584250D01*
X130401750Y-108691000D01*
X131445000Y-108691000D01*
X131445000Y-108047750D01*
X131699000Y-108047750D01*
X131699000Y-108691000D01*
X132742250Y-108691000D01*
X132849000Y-108584250D01*
X132849000Y-108283065D01*
X132783993Y-108126124D01*
X132663876Y-108006007D01*
X132506936Y-107941000D01*
X131805750Y-107941000D01*
X131699000Y-108047750D01*
X131445000Y-108047750D01*
X131338250Y-107941000D01*
X130637064Y-107941000D01*
X130480124Y-108006007D01*
X130360007Y-108126124D01*
X130295000Y-108283065D01*
X129434000Y-108283065D01*
X129434000Y-108204000D01*
X129403400Y-108050161D01*
X129316257Y-107919743D01*
X129185839Y-107832600D01*
X129032000Y-107802000D01*
X124100000Y-107802000D01*
X124100000Y-107727476D01*
X124108286Y-107733138D01*
X124238000Y-107759406D01*
X128238000Y-107759406D01*
X128359179Y-107736605D01*
X128470474Y-107664988D01*
X128545138Y-107555714D01*
X128571406Y-107426000D01*
X128571406Y-106370000D01*
X130388970Y-106370000D01*
X130411395Y-106489179D01*
X130483012Y-106600474D01*
X130592286Y-106675138D01*
X130722000Y-106701406D01*
X132224182Y-106701406D01*
X133030388Y-107507612D01*
X133177027Y-107605594D01*
X133350000Y-107640000D01*
X135448776Y-107640000D01*
X136332388Y-108523612D01*
X136479027Y-108621594D01*
X136652000Y-108656000D01*
X139512776Y-108656000D01*
X140180488Y-109323712D01*
X140327127Y-109421694D01*
X140446094Y-109445358D01*
X140446094Y-109813137D01*
X140417507Y-109841724D01*
X140352500Y-109998665D01*
X140352500Y-110084800D01*
X140459250Y-110191550D01*
X141351000Y-110191550D01*
X141351000Y-110188406D01*
X141605000Y-110188406D01*
X141605000Y-110191550D01*
X142496750Y-110191550D01*
X142603500Y-110084800D01*
X142603500Y-110054003D01*
X142746112Y-109958712D01*
X143067613Y-109637212D01*
X143165594Y-109490573D01*
X143200000Y-109317600D01*
X143200000Y-106860728D01*
X143279235Y-106781631D01*
X143374891Y-106551265D01*
X143375109Y-106301829D01*
X143279855Y-106071297D01*
X143112808Y-105903958D01*
X143332777Y-105756979D01*
X143512048Y-105488681D01*
X143513732Y-105480215D01*
X144052831Y-105480215D01*
X144270924Y-105928214D01*
X144643858Y-106258651D01*
X144963787Y-106391158D01*
X145161000Y-106319338D01*
X145161000Y-105283000D01*
X144124070Y-105283000D01*
X144052831Y-105480215D01*
X143513732Y-105480215D01*
X143575000Y-105172202D01*
X143575000Y-105139798D01*
X143513733Y-104831785D01*
X144052831Y-104831785D01*
X144124070Y-105029000D01*
X145161000Y-105029000D01*
X145161000Y-103992662D01*
X144963787Y-103920842D01*
X144643858Y-104053349D01*
X144270924Y-104383786D01*
X144052831Y-104831785D01*
X143513733Y-104831785D01*
X143512048Y-104823319D01*
X143332777Y-104555021D01*
X143064479Y-104375750D01*
X142748000Y-104312798D01*
X142431521Y-104375750D01*
X142163223Y-104555021D01*
X141983952Y-104823319D01*
X141921000Y-105139798D01*
X141921000Y-105172202D01*
X141983952Y-105488681D01*
X142163223Y-105756979D01*
X142383357Y-105904068D01*
X142216765Y-106070369D01*
X142121109Y-106300735D01*
X142120891Y-106550171D01*
X142216145Y-106780703D01*
X142296000Y-106860698D01*
X142296000Y-107183594D01*
X142176500Y-107159394D01*
X141072619Y-107159394D01*
X140273612Y-106360388D01*
X140253568Y-106346995D01*
X140658418Y-106266465D01*
X141040265Y-106011324D01*
X141295406Y-105629477D01*
X141385000Y-105179059D01*
X141385000Y-105132941D01*
X141295406Y-104682523D01*
X141040265Y-104300676D01*
X140658418Y-104045535D01*
X140208000Y-103955941D01*
X139757582Y-104045535D01*
X139375735Y-104300676D01*
X139120594Y-104682523D01*
X139031000Y-105132941D01*
X139031000Y-105179059D01*
X139120594Y-105629477D01*
X139375735Y-106011324D01*
X139700015Y-106228000D01*
X137347225Y-106228000D01*
X136259023Y-105139798D01*
X136841000Y-105139798D01*
X136841000Y-105172202D01*
X136903952Y-105488681D01*
X137083223Y-105756979D01*
X137351521Y-105936250D01*
X137668000Y-105999202D01*
X137984479Y-105936250D01*
X138252777Y-105756979D01*
X138432048Y-105488681D01*
X138495000Y-105172202D01*
X138495000Y-105139798D01*
X138432048Y-104823319D01*
X138252777Y-104555021D01*
X137984479Y-104375750D01*
X137668000Y-104312798D01*
X137351521Y-104375750D01*
X137083223Y-104555021D01*
X136903952Y-104823319D01*
X136841000Y-105139798D01*
X136259023Y-105139798D01*
X135955612Y-104836388D01*
X135808973Y-104738406D01*
X135636000Y-104704000D01*
X134045225Y-104704000D01*
X133490224Y-104149000D01*
X134132250Y-104149000D01*
X134239000Y-104042250D01*
X134239000Y-103399000D01*
X134493000Y-103399000D01*
X134493000Y-104042250D01*
X134599750Y-104149000D01*
X135300936Y-104149000D01*
X135457876Y-104083993D01*
X135577993Y-103963876D01*
X135643000Y-103806935D01*
X135643000Y-103505750D01*
X135536250Y-103399000D01*
X134493000Y-103399000D01*
X134239000Y-103399000D01*
X133195750Y-103399000D01*
X133089000Y-103505750D01*
X133089000Y-103806935D01*
X133122581Y-103888007D01*
X133022000Y-103868000D01*
X132755030Y-103868000D01*
X132732605Y-103748821D01*
X132660988Y-103637526D01*
X132551714Y-103562862D01*
X132422000Y-103536594D01*
X130845818Y-103536594D01*
X130754000Y-103444776D01*
X130754000Y-102737065D01*
X133089000Y-102737065D01*
X133089000Y-103038250D01*
X133195750Y-103145000D01*
X134239000Y-103145000D01*
X134239000Y-102501750D01*
X134493000Y-102501750D01*
X134493000Y-103145000D01*
X135536250Y-103145000D01*
X135643000Y-103038250D01*
X135643000Y-102737065D01*
X135586143Y-102599798D01*
X136841000Y-102599798D01*
X136841000Y-102632202D01*
X136903952Y-102948681D01*
X137083223Y-103216979D01*
X137351521Y-103396250D01*
X137668000Y-103459202D01*
X137984479Y-103396250D01*
X138252777Y-103216979D01*
X138432048Y-102948681D01*
X138495000Y-102632202D01*
X138495000Y-102599798D01*
X138493637Y-102592941D01*
X139031000Y-102592941D01*
X139031000Y-102639059D01*
X139120594Y-103089477D01*
X139375735Y-103471324D01*
X139757582Y-103726465D01*
X140208000Y-103816059D01*
X140658418Y-103726465D01*
X141040265Y-103471324D01*
X141295406Y-103089477D01*
X141385000Y-102639059D01*
X141385000Y-102599798D01*
X141921000Y-102599798D01*
X141921000Y-102632202D01*
X141983952Y-102948681D01*
X142163223Y-103216979D01*
X142431521Y-103396250D01*
X142748000Y-103459202D01*
X143064479Y-103396250D01*
X143332777Y-103216979D01*
X143512048Y-102948681D01*
X143513732Y-102940215D01*
X144052831Y-102940215D01*
X144270924Y-103388214D01*
X144643858Y-103718651D01*
X144963787Y-103851158D01*
X145161000Y-103779338D01*
X145161000Y-102743000D01*
X145415000Y-102743000D01*
X145415000Y-103779338D01*
X145612213Y-103851158D01*
X145932142Y-103718651D01*
X146305076Y-103388214D01*
X146523169Y-102940215D01*
X146451930Y-102743000D01*
X145415000Y-102743000D01*
X145161000Y-102743000D01*
X144124070Y-102743000D01*
X144052831Y-102940215D01*
X143513732Y-102940215D01*
X143575000Y-102632202D01*
X143575000Y-102599798D01*
X143513733Y-102291785D01*
X144052831Y-102291785D01*
X144124070Y-102489000D01*
X145161000Y-102489000D01*
X145161000Y-101452662D01*
X145415000Y-101452662D01*
X145415000Y-102489000D01*
X146451930Y-102489000D01*
X146523169Y-102291785D01*
X146305076Y-101843786D01*
X145932142Y-101513349D01*
X145612213Y-101380842D01*
X145415000Y-101452662D01*
X145161000Y-101452662D01*
X144963787Y-101380842D01*
X144643858Y-101513349D01*
X144270924Y-101843786D01*
X144052831Y-102291785D01*
X143513733Y-102291785D01*
X143512048Y-102283319D01*
X143332777Y-102015021D01*
X143064479Y-101835750D01*
X142748000Y-101772798D01*
X142431521Y-101835750D01*
X142163223Y-102015021D01*
X141983952Y-102283319D01*
X141921000Y-102599798D01*
X141385000Y-102599798D01*
X141385000Y-102592941D01*
X141295406Y-102142523D01*
X141040265Y-101760676D01*
X140658418Y-101505535D01*
X140208000Y-101415941D01*
X139757582Y-101505535D01*
X139375735Y-101760676D01*
X139120594Y-102142523D01*
X139031000Y-102592941D01*
X138493637Y-102592941D01*
X138432048Y-102283319D01*
X138252777Y-102015021D01*
X137984479Y-101835750D01*
X137668000Y-101772798D01*
X137351521Y-101835750D01*
X137083223Y-102015021D01*
X136903952Y-102283319D01*
X136841000Y-102599798D01*
X135586143Y-102599798D01*
X135577993Y-102580124D01*
X135457876Y-102460007D01*
X135300936Y-102395000D01*
X134599750Y-102395000D01*
X134493000Y-102501750D01*
X134239000Y-102501750D01*
X134132250Y-102395000D01*
X133431064Y-102395000D01*
X133274124Y-102460007D01*
X133154007Y-102580124D01*
X133089000Y-102737065D01*
X130754000Y-102737065D01*
X130754000Y-102297000D01*
X131338250Y-102297000D01*
X131445000Y-102190250D01*
X131445000Y-101547000D01*
X131699000Y-101547000D01*
X131699000Y-102190250D01*
X131805750Y-102297000D01*
X132506936Y-102297000D01*
X132663876Y-102231993D01*
X132783993Y-102111876D01*
X132849000Y-101954935D01*
X132849000Y-101653750D01*
X132742250Y-101547000D01*
X131699000Y-101547000D01*
X131445000Y-101547000D01*
X131425000Y-101547000D01*
X131425000Y-101293000D01*
X131445000Y-101293000D01*
X131445000Y-100649750D01*
X131699000Y-100649750D01*
X131699000Y-101293000D01*
X132742250Y-101293000D01*
X132849000Y-101186250D01*
X132849000Y-100885065D01*
X132783993Y-100728124D01*
X132663876Y-100608007D01*
X132506936Y-100543000D01*
X131805750Y-100543000D01*
X131699000Y-100649750D01*
X131445000Y-100649750D01*
X131338250Y-100543000D01*
X130638057Y-100543000D01*
X130621612Y-100518388D01*
X129859612Y-99756388D01*
X129712973Y-99658406D01*
X129540000Y-99624000D01*
X128488876Y-99624000D01*
X128476988Y-99605526D01*
X128367714Y-99530862D01*
X128238000Y-99504594D01*
X124238000Y-99504594D01*
X124116821Y-99527395D01*
X124100000Y-99538219D01*
X124100000Y-99345476D01*
X124108286Y-99351138D01*
X124238000Y-99377406D01*
X128238000Y-99377406D01*
X128359179Y-99354605D01*
X128470474Y-99282988D01*
X128545138Y-99173714D01*
X128571406Y-99044000D01*
X128571406Y-98496000D01*
X129867272Y-98496000D01*
X129946369Y-98575235D01*
X130176735Y-98670891D01*
X130426171Y-98671109D01*
X130656703Y-98575855D01*
X130833235Y-98399631D01*
X130928891Y-98169265D01*
X130929109Y-97919829D01*
X130833855Y-97689297D01*
X130657631Y-97512765D01*
X130427265Y-97417109D01*
X130177829Y-97416891D01*
X129947297Y-97512145D01*
X129867302Y-97592000D01*
X128571406Y-97592000D01*
X128571406Y-97044000D01*
X128548605Y-96922821D01*
X128548077Y-96922000D01*
X131290428Y-96922000D01*
X132210203Y-99451381D01*
X132214852Y-99459047D01*
X132216600Y-99467837D01*
X132421733Y-99963074D01*
X132454882Y-100012686D01*
X132483167Y-100065214D01*
X133142019Y-100863024D01*
X133142021Y-100863027D01*
X133191754Y-100903587D01*
X133263575Y-100962162D01*
X133263579Y-100962163D01*
X134177587Y-101447112D01*
X134327825Y-101492184D01*
X134327830Y-101492184D01*
X135357839Y-101590442D01*
X135357844Y-101590443D01*
X135435869Y-101582516D01*
X135513894Y-101574590D01*
X135513898Y-101574588D01*
X136503105Y-101271198D01*
X136503110Y-101271198D01*
X136582526Y-101228435D01*
X136641215Y-101196834D01*
X136641220Y-101196828D01*
X137439024Y-100537981D01*
X137439027Y-100537979D01*
X137501603Y-100461251D01*
X137538162Y-100416425D01*
X137538163Y-100416421D01*
X138023112Y-99502413D01*
X138024189Y-99498821D01*
X138026507Y-99495871D01*
X138046686Y-99423836D01*
X138068184Y-99352175D01*
X138067805Y-99348442D01*
X138068816Y-99344832D01*
X138294265Y-96414000D01*
X138411142Y-96414000D01*
X138406765Y-96418369D01*
G36*
X148971000Y-110109000D02*
X148991000Y-110109000D01*
X148991000Y-110363000D01*
X148971000Y-110363000D01*
X148971000Y-110383000D01*
X148717000Y-110383000D01*
X148717000Y-110363000D01*
X148697000Y-110363000D01*
X148697000Y-110109000D01*
X148717000Y-110109000D01*
X148717000Y-110089000D01*
X148971000Y-110089000D01*
X148971000Y-110109000D01*
X148971000Y-110109000D01*
G37*
X148971000Y-110109000D02*
X148991000Y-110109000D01*
X148991000Y-110363000D01*
X148971000Y-110363000D01*
X148971000Y-110383000D01*
X148717000Y-110383000D01*
X148717000Y-110363000D01*
X148697000Y-110363000D01*
X148697000Y-110109000D01*
X148717000Y-110109000D01*
X148717000Y-110089000D01*
X148971000Y-110089000D01*
X148971000Y-110109000D01*
G36*
X129850000Y-101025224D02*
X129850000Y-103632000D01*
X129884406Y-103804973D01*
X129982388Y-103951612D01*
X130388594Y-104357819D01*
X130388594Y-104690999D01*
X128952223Y-104690999D01*
X128571406Y-104310182D01*
X128571406Y-102632000D01*
X128548605Y-102510821D01*
X128476988Y-102399526D01*
X128367714Y-102324862D01*
X128238000Y-102298594D01*
X124238000Y-102298594D01*
X124116821Y-102321395D01*
X124100000Y-102332219D01*
X124100000Y-102139476D01*
X124108286Y-102145138D01*
X124238000Y-102171406D01*
X128238000Y-102171406D01*
X128359179Y-102148605D01*
X128470474Y-102076988D01*
X128545138Y-101967714D01*
X128571406Y-101838000D01*
X128571406Y-100528000D01*
X129352776Y-100528000D01*
X129850000Y-101025224D01*
X129850000Y-101025224D01*
G37*
X129850000Y-101025224D02*
X129850000Y-103632000D01*
X129884406Y-103804973D01*
X129982388Y-103951612D01*
X130388594Y-104357819D01*
X130388594Y-104690999D01*
X128952223Y-104690999D01*
X128571406Y-104310182D01*
X128571406Y-102632000D01*
X128548605Y-102510821D01*
X128476988Y-102399526D01*
X128367714Y-102324862D01*
X128238000Y-102298594D01*
X124238000Y-102298594D01*
X124116821Y-102321395D01*
X124100000Y-102332219D01*
X124100000Y-102139476D01*
X124108286Y-102145138D01*
X124238000Y-102171406D01*
X128238000Y-102171406D01*
X128359179Y-102148605D01*
X128470474Y-102076988D01*
X128545138Y-101967714D01*
X128571406Y-101838000D01*
X128571406Y-100528000D01*
X129352776Y-100528000D01*
X129850000Y-101025224D01*
M02*
