G04 #@! TF.FileFunction,Copper,L2,Bot,Signal*
%FSLAX46Y46*%
G04 Gerber Fmt 4.6, Leading zero omitted, Abs format (unit mm)*
G04 Created by KiCad (PCBNEW 4.0.7) date 12/01/17 22:29:32*
%MOMM*%
%LPD*%
G01*
G04 APERTURE LIST*
%ADD10C,0.100000*%
%ADD11R,1.700000X1.700000*%
%ADD12O,1.700000X1.700000*%
%ADD13R,1.700000X0.900000*%
%ADD14R,4.000000X2.000000*%
%ADD15R,1.600000X1.000000*%
%ADD16C,0.600000*%
%ADD17C,0.250000*%
%ADD18C,0.400000*%
%ADD19C,0.254000*%
G04 APERTURE END LIST*
D10*
D11*
X150368000Y-105410000D03*
D12*
X150368000Y-102870000D03*
X147828000Y-102870000D03*
X140208000Y-105410000D03*
D13*
X141986000Y-99928000D03*
X141986000Y-97028000D03*
X147574000Y-97028000D03*
X147574000Y-99928000D03*
X144780000Y-99928000D03*
X144780000Y-97028000D03*
X145542000Y-107950000D03*
X145542000Y-110850000D03*
X150622000Y-107950000D03*
X150622000Y-110850000D03*
X148082000Y-107950000D03*
X148082000Y-110850000D03*
D14*
X126238000Y-106426000D03*
X126238000Y-103632000D03*
D15*
X133096000Y-102870000D03*
X133096000Y-105870000D03*
X130810000Y-102870000D03*
X130810000Y-105870000D03*
D16*
X138684000Y-98298000D03*
X131064000Y-98044000D03*
X144780000Y-98552000D03*
X141478000Y-110490000D03*
X152145990Y-111252000D03*
X149860000Y-99822000D03*
X149098000Y-106934000D03*
X148590000Y-109982000D03*
X146812000Y-109728000D03*
X140970000Y-111760000D03*
X135382000Y-108204000D03*
X138176000Y-111760000D03*
X138684000Y-101346000D03*
X133350000Y-108204000D03*
X134366000Y-104140000D03*
X136652000Y-104140000D03*
X129286008Y-103632000D03*
X129540000Y-107188000D03*
X129032000Y-101092000D03*
X129793996Y-99060000D03*
X143001998Y-108204000D03*
X136906000Y-108966000D03*
X130048000Y-107950000D03*
X144018000Y-101346000D03*
X140970000Y-107950000D03*
X143764052Y-110998000D03*
D17*
X150368000Y-107950000D02*
X150368000Y-105410000D01*
X150368000Y-107950000D02*
X150622000Y-107950000D01*
X147828000Y-102870000D02*
X147828000Y-103124000D01*
X147828000Y-103124000D02*
X146558000Y-104394000D01*
X146558000Y-104394000D02*
X146558000Y-106426000D01*
X146558000Y-106426000D02*
X147828000Y-107696000D01*
X147828000Y-107696000D02*
X147828000Y-107950000D01*
X131064000Y-98044000D02*
X131064000Y-99314000D01*
X138684000Y-99568000D02*
X138684000Y-98298000D01*
X131064000Y-99314000D02*
X133604000Y-101854000D01*
X133604000Y-101854000D02*
X136398000Y-101854000D01*
X136398000Y-101854000D02*
X138684000Y-99568000D01*
X144780000Y-98552000D02*
X144780000Y-97028000D01*
X144186000Y-99928000D02*
X144780000Y-99928000D01*
X141986000Y-97728000D02*
X144186000Y-99928000D01*
X141986000Y-97028000D02*
X141986000Y-97728000D01*
X147574000Y-99928000D02*
X146474000Y-99928000D01*
X146474000Y-99928000D02*
X144780000Y-99928000D01*
X152145990Y-111252000D02*
X151383990Y-112014000D01*
X141986000Y-111760000D02*
X141986000Y-110998000D01*
X151383990Y-112014000D02*
X142240000Y-112014000D01*
X142240000Y-112014000D02*
X141986000Y-111760000D01*
X141986000Y-110998000D02*
X141478000Y-110490000D01*
X149860000Y-99822000D02*
X149860000Y-98914000D01*
X149860000Y-98914000D02*
X147974000Y-97028000D01*
X147974000Y-97028000D02*
X147574000Y-97028000D01*
X149098000Y-106934000D02*
X149352000Y-107188000D01*
X149352000Y-107188000D02*
X149352000Y-108966000D01*
X149352000Y-108966000D02*
X150368000Y-109982000D01*
X150368000Y-109982000D02*
X150368000Y-110850000D01*
X147828000Y-110850000D02*
X147828000Y-110744000D01*
X147828000Y-110744000D02*
X148082000Y-110490000D01*
X148082000Y-110490000D02*
X148590000Y-109982000D01*
X147976000Y-110596000D02*
X148290001Y-110281999D01*
X147574000Y-110596000D02*
X147976000Y-110596000D01*
X148290001Y-110281999D02*
X148590000Y-109982000D01*
X143001998Y-108204000D02*
X144525999Y-109728001D01*
X144525999Y-109728001D02*
X144536000Y-109718000D01*
X144536000Y-109718000D02*
X141892266Y-109718000D01*
X141892266Y-109718000D02*
X141478000Y-109303734D01*
X146387736Y-109728000D02*
X146812000Y-109728000D01*
X144525998Y-109728000D02*
X146387736Y-109728000D01*
X143001998Y-108204000D02*
X144525998Y-109728000D01*
X142577734Y-108204000D02*
X141478000Y-109303734D01*
X141478000Y-109303734D02*
X140670001Y-110111733D01*
X140670001Y-111460001D02*
X140970000Y-111760000D01*
X140670001Y-110111733D02*
X140670001Y-111460001D01*
X143001998Y-108204000D02*
X142577734Y-108204000D01*
X129793996Y-99060000D02*
X129032000Y-99821996D01*
X129032000Y-99821996D02*
X129032000Y-101092000D01*
X128778000Y-106426000D02*
X129032000Y-106680000D01*
X129032000Y-106680000D02*
X129540000Y-107188000D01*
X129032000Y-106680000D02*
X129748001Y-107396001D01*
X129748001Y-107396001D02*
X129748001Y-107650001D01*
X129748001Y-107650001D02*
X130048000Y-107950000D01*
X144018000Y-101346000D02*
X138684000Y-101346000D01*
X129286008Y-104056264D02*
X129286008Y-103632000D01*
X128778000Y-105918000D02*
X129286008Y-105409992D01*
X129286008Y-105409992D02*
X129286008Y-104056264D01*
X126238000Y-106426000D02*
X128778000Y-106426000D01*
X128778000Y-106426000D02*
X128778000Y-105918000D01*
X128488000Y-106426000D02*
X128778000Y-106426000D01*
X126238000Y-106426000D02*
X128488000Y-106426000D01*
X144018000Y-101346000D02*
X143764000Y-101346000D01*
X143764000Y-101346000D02*
X142346000Y-99928000D01*
X142346000Y-99928000D02*
X141986000Y-99928000D01*
D18*
X126238000Y-103632000D02*
X127508000Y-103632000D01*
X127508000Y-103632000D02*
X129032000Y-102108000D01*
X129032000Y-102108000D02*
X130048000Y-102108000D01*
X130810000Y-102870000D02*
X132645990Y-102870000D01*
X130048000Y-102108000D02*
X130810000Y-102870000D01*
X140970000Y-107950000D02*
X140462000Y-107442000D01*
X140462000Y-107442000D02*
X137160000Y-107442000D01*
X137160000Y-107442000D02*
X135636000Y-105918000D01*
X135636000Y-105918000D02*
X135636000Y-103632000D01*
X135636000Y-103632000D02*
X134874000Y-102870000D01*
X134874000Y-102870000D02*
X133096000Y-102870000D01*
X140970000Y-107950000D02*
X141732000Y-107188000D01*
X141732000Y-107188000D02*
X143510000Y-107188000D01*
X144272000Y-107950000D02*
X145034000Y-107950000D01*
X143510000Y-107188000D02*
X144272000Y-107950000D01*
D17*
X143764052Y-110998000D02*
X145394000Y-110998000D01*
X145394000Y-110998000D02*
X145542000Y-110850000D01*
X144886000Y-110998000D02*
X145034000Y-110850000D01*
D19*
G36*
X129362560Y-103370000D02*
X129406838Y-103605317D01*
X129545910Y-103821441D01*
X129758110Y-103966431D01*
X130010000Y-104017440D01*
X131610000Y-104017440D01*
X131845317Y-103973162D01*
X131952768Y-103904019D01*
X132044110Y-103966431D01*
X132296000Y-104017440D01*
X133896000Y-104017440D01*
X134131317Y-103973162D01*
X134347441Y-103834090D01*
X134435644Y-103705000D01*
X134528132Y-103705000D01*
X134801000Y-103977868D01*
X134801000Y-105918000D01*
X134864561Y-106237541D01*
X135037464Y-106496309D01*
X135045566Y-106508434D01*
X136569566Y-108032434D01*
X136840459Y-108213439D01*
X137160000Y-108277000D01*
X140093442Y-108277000D01*
X140176883Y-108478943D01*
X140439673Y-108742192D01*
X140783201Y-108884838D01*
X141155167Y-108885162D01*
X141498943Y-108743117D01*
X141762192Y-108480327D01*
X141862778Y-108238090D01*
X142077868Y-108023000D01*
X143164132Y-108023000D01*
X143681566Y-108540434D01*
X143952460Y-108721440D01*
X144172409Y-108765190D01*
X144227910Y-108851441D01*
X144440110Y-108996431D01*
X144692000Y-109047440D01*
X146392000Y-109047440D01*
X146627317Y-109003162D01*
X146814077Y-108882985D01*
X146980110Y-108996431D01*
X147232000Y-109047440D01*
X148403376Y-109047440D01*
X148061057Y-109188883D01*
X147797808Y-109451673D01*
X147672868Y-109752560D01*
X147232000Y-109752560D01*
X146996683Y-109796838D01*
X146809923Y-109917015D01*
X146643890Y-109803569D01*
X146392000Y-109752560D01*
X144692000Y-109752560D01*
X144456683Y-109796838D01*
X144240559Y-109935910D01*
X144108799Y-110128748D01*
X143950851Y-110063162D01*
X143578885Y-110062838D01*
X143235109Y-110204883D01*
X142971860Y-110467673D01*
X142829214Y-110811201D01*
X142828890Y-111183167D01*
X142858158Y-111254000D01*
X142746000Y-111254000D01*
X142746000Y-110998000D01*
X142688148Y-110707161D01*
X142523401Y-110460599D01*
X142413122Y-110350320D01*
X142413162Y-110304833D01*
X142271117Y-109961057D01*
X142008327Y-109697808D01*
X141664799Y-109555162D01*
X141292833Y-109554838D01*
X140949057Y-109696883D01*
X140685808Y-109959673D01*
X140543162Y-110303201D01*
X140542838Y-110675167D01*
X140684883Y-111018943D01*
X140947673Y-111282192D01*
X141226000Y-111397764D01*
X141226000Y-111760000D01*
X141283852Y-112050839D01*
X141293982Y-112066000D01*
X138124000Y-112066000D01*
X138124000Y-109982000D01*
X138069954Y-109710295D01*
X137916046Y-109479954D01*
X137685705Y-109326046D01*
X137414000Y-109272000D01*
X129742000Y-109272000D01*
X129742000Y-108204000D01*
X129687954Y-107932295D01*
X129534046Y-107701954D01*
X129303705Y-107548046D01*
X129032000Y-107494000D01*
X128873000Y-107494000D01*
X128873000Y-106711750D01*
X128714250Y-106553000D01*
X126365000Y-106553000D01*
X126365000Y-106573000D01*
X126111000Y-106573000D01*
X126111000Y-106553000D01*
X126091000Y-106553000D01*
X126091000Y-106299000D01*
X126111000Y-106299000D01*
X126111000Y-106279000D01*
X126365000Y-106279000D01*
X126365000Y-106299000D01*
X128714250Y-106299000D01*
X128857500Y-106155750D01*
X129375000Y-106155750D01*
X129375000Y-106496309D01*
X129471673Y-106729698D01*
X129650301Y-106908327D01*
X129883690Y-107005000D01*
X130524250Y-107005000D01*
X130683000Y-106846250D01*
X130683000Y-105997000D01*
X130937000Y-105997000D01*
X130937000Y-106846250D01*
X131095750Y-107005000D01*
X131736310Y-107005000D01*
X131953000Y-106915244D01*
X132169690Y-107005000D01*
X132810250Y-107005000D01*
X132969000Y-106846250D01*
X132969000Y-105997000D01*
X133223000Y-105997000D01*
X133223000Y-106846250D01*
X133381750Y-107005000D01*
X134022310Y-107005000D01*
X134255699Y-106908327D01*
X134434327Y-106729698D01*
X134531000Y-106496309D01*
X134531000Y-106155750D01*
X134372250Y-105997000D01*
X133223000Y-105997000D01*
X132969000Y-105997000D01*
X130937000Y-105997000D01*
X130683000Y-105997000D01*
X129533750Y-105997000D01*
X129375000Y-106155750D01*
X128857500Y-106155750D01*
X128873000Y-106140250D01*
X128873000Y-105299691D01*
X128849805Y-105243691D01*
X129375000Y-105243691D01*
X129375000Y-105584250D01*
X129533750Y-105743000D01*
X130683000Y-105743000D01*
X130683000Y-104893750D01*
X130937000Y-104893750D01*
X130937000Y-105743000D01*
X132969000Y-105743000D01*
X132969000Y-104893750D01*
X133223000Y-104893750D01*
X133223000Y-105743000D01*
X134372250Y-105743000D01*
X134531000Y-105584250D01*
X134531000Y-105243691D01*
X134434327Y-105010302D01*
X134255699Y-104831673D01*
X134022310Y-104735000D01*
X133381750Y-104735000D01*
X133223000Y-104893750D01*
X132969000Y-104893750D01*
X132810250Y-104735000D01*
X132169690Y-104735000D01*
X131953000Y-104824756D01*
X131736310Y-104735000D01*
X131095750Y-104735000D01*
X130937000Y-104893750D01*
X130683000Y-104893750D01*
X130524250Y-104735000D01*
X129883690Y-104735000D01*
X129650301Y-104831673D01*
X129471673Y-105010302D01*
X129375000Y-105243691D01*
X128849805Y-105243691D01*
X128776327Y-105066302D01*
X128736801Y-105026776D01*
X128834431Y-104883890D01*
X128885440Y-104632000D01*
X128885440Y-103435428D01*
X129362560Y-102958308D01*
X129362560Y-103370000D01*
X129362560Y-103370000D01*
G37*
X129362560Y-103370000D02*
X129406838Y-103605317D01*
X129545910Y-103821441D01*
X129758110Y-103966431D01*
X130010000Y-104017440D01*
X131610000Y-104017440D01*
X131845317Y-103973162D01*
X131952768Y-103904019D01*
X132044110Y-103966431D01*
X132296000Y-104017440D01*
X133896000Y-104017440D01*
X134131317Y-103973162D01*
X134347441Y-103834090D01*
X134435644Y-103705000D01*
X134528132Y-103705000D01*
X134801000Y-103977868D01*
X134801000Y-105918000D01*
X134864561Y-106237541D01*
X135037464Y-106496309D01*
X135045566Y-106508434D01*
X136569566Y-108032434D01*
X136840459Y-108213439D01*
X137160000Y-108277000D01*
X140093442Y-108277000D01*
X140176883Y-108478943D01*
X140439673Y-108742192D01*
X140783201Y-108884838D01*
X141155167Y-108885162D01*
X141498943Y-108743117D01*
X141762192Y-108480327D01*
X141862778Y-108238090D01*
X142077868Y-108023000D01*
X143164132Y-108023000D01*
X143681566Y-108540434D01*
X143952460Y-108721440D01*
X144172409Y-108765190D01*
X144227910Y-108851441D01*
X144440110Y-108996431D01*
X144692000Y-109047440D01*
X146392000Y-109047440D01*
X146627317Y-109003162D01*
X146814077Y-108882985D01*
X146980110Y-108996431D01*
X147232000Y-109047440D01*
X148403376Y-109047440D01*
X148061057Y-109188883D01*
X147797808Y-109451673D01*
X147672868Y-109752560D01*
X147232000Y-109752560D01*
X146996683Y-109796838D01*
X146809923Y-109917015D01*
X146643890Y-109803569D01*
X146392000Y-109752560D01*
X144692000Y-109752560D01*
X144456683Y-109796838D01*
X144240559Y-109935910D01*
X144108799Y-110128748D01*
X143950851Y-110063162D01*
X143578885Y-110062838D01*
X143235109Y-110204883D01*
X142971860Y-110467673D01*
X142829214Y-110811201D01*
X142828890Y-111183167D01*
X142858158Y-111254000D01*
X142746000Y-111254000D01*
X142746000Y-110998000D01*
X142688148Y-110707161D01*
X142523401Y-110460599D01*
X142413122Y-110350320D01*
X142413162Y-110304833D01*
X142271117Y-109961057D01*
X142008327Y-109697808D01*
X141664799Y-109555162D01*
X141292833Y-109554838D01*
X140949057Y-109696883D01*
X140685808Y-109959673D01*
X140543162Y-110303201D01*
X140542838Y-110675167D01*
X140684883Y-111018943D01*
X140947673Y-111282192D01*
X141226000Y-111397764D01*
X141226000Y-111760000D01*
X141283852Y-112050839D01*
X141293982Y-112066000D01*
X138124000Y-112066000D01*
X138124000Y-109982000D01*
X138069954Y-109710295D01*
X137916046Y-109479954D01*
X137685705Y-109326046D01*
X137414000Y-109272000D01*
X129742000Y-109272000D01*
X129742000Y-108204000D01*
X129687954Y-107932295D01*
X129534046Y-107701954D01*
X129303705Y-107548046D01*
X129032000Y-107494000D01*
X128873000Y-107494000D01*
X128873000Y-106711750D01*
X128714250Y-106553000D01*
X126365000Y-106553000D01*
X126365000Y-106573000D01*
X126111000Y-106573000D01*
X126111000Y-106553000D01*
X126091000Y-106553000D01*
X126091000Y-106299000D01*
X126111000Y-106299000D01*
X126111000Y-106279000D01*
X126365000Y-106279000D01*
X126365000Y-106299000D01*
X128714250Y-106299000D01*
X128857500Y-106155750D01*
X129375000Y-106155750D01*
X129375000Y-106496309D01*
X129471673Y-106729698D01*
X129650301Y-106908327D01*
X129883690Y-107005000D01*
X130524250Y-107005000D01*
X130683000Y-106846250D01*
X130683000Y-105997000D01*
X130937000Y-105997000D01*
X130937000Y-106846250D01*
X131095750Y-107005000D01*
X131736310Y-107005000D01*
X131953000Y-106915244D01*
X132169690Y-107005000D01*
X132810250Y-107005000D01*
X132969000Y-106846250D01*
X132969000Y-105997000D01*
X133223000Y-105997000D01*
X133223000Y-106846250D01*
X133381750Y-107005000D01*
X134022310Y-107005000D01*
X134255699Y-106908327D01*
X134434327Y-106729698D01*
X134531000Y-106496309D01*
X134531000Y-106155750D01*
X134372250Y-105997000D01*
X133223000Y-105997000D01*
X132969000Y-105997000D01*
X130937000Y-105997000D01*
X130683000Y-105997000D01*
X129533750Y-105997000D01*
X129375000Y-106155750D01*
X128857500Y-106155750D01*
X128873000Y-106140250D01*
X128873000Y-105299691D01*
X128849805Y-105243691D01*
X129375000Y-105243691D01*
X129375000Y-105584250D01*
X129533750Y-105743000D01*
X130683000Y-105743000D01*
X130683000Y-104893750D01*
X130937000Y-104893750D01*
X130937000Y-105743000D01*
X132969000Y-105743000D01*
X132969000Y-104893750D01*
X133223000Y-104893750D01*
X133223000Y-105743000D01*
X134372250Y-105743000D01*
X134531000Y-105584250D01*
X134531000Y-105243691D01*
X134434327Y-105010302D01*
X134255699Y-104831673D01*
X134022310Y-104735000D01*
X133381750Y-104735000D01*
X133223000Y-104893750D01*
X132969000Y-104893750D01*
X132810250Y-104735000D01*
X132169690Y-104735000D01*
X131953000Y-104824756D01*
X131736310Y-104735000D01*
X131095750Y-104735000D01*
X130937000Y-104893750D01*
X130683000Y-104893750D01*
X130524250Y-104735000D01*
X129883690Y-104735000D01*
X129650301Y-104831673D01*
X129471673Y-105010302D01*
X129375000Y-105243691D01*
X128849805Y-105243691D01*
X128776327Y-105066302D01*
X128736801Y-105026776D01*
X128834431Y-104883890D01*
X128885440Y-104632000D01*
X128885440Y-103435428D01*
X129362560Y-102958308D01*
X129362560Y-103370000D01*
G36*
X140488560Y-97478000D02*
X140532838Y-97713317D01*
X140671910Y-97929441D01*
X140884110Y-98074431D01*
X141136000Y-98125440D01*
X141355080Y-98125440D01*
X141448599Y-98265401D01*
X142148974Y-98965776D01*
X142113000Y-99001750D01*
X142113000Y-99801000D01*
X142133000Y-99801000D01*
X142133000Y-100055000D01*
X142113000Y-100055000D01*
X142113000Y-100854250D01*
X142271750Y-101013000D01*
X142962310Y-101013000D01*
X143195699Y-100916327D01*
X143374327Y-100737698D01*
X143387073Y-100706925D01*
X143465910Y-100829441D01*
X143678110Y-100974431D01*
X143930000Y-101025440D01*
X145630000Y-101025440D01*
X145865317Y-100981162D01*
X146081441Y-100842090D01*
X146177543Y-100701440D01*
X146259910Y-100829441D01*
X146472110Y-100974431D01*
X146724000Y-101025440D01*
X148424000Y-101025440D01*
X148659317Y-100981162D01*
X148875441Y-100842090D01*
X149020431Y-100629890D01*
X149071440Y-100378000D01*
X149071440Y-100355508D01*
X149329673Y-100614192D01*
X149673201Y-100756838D01*
X150045167Y-100757162D01*
X150388943Y-100615117D01*
X150451357Y-100552812D01*
X150559681Y-100756202D01*
X150735105Y-100970610D01*
X151504081Y-101603616D01*
X151617247Y-101664322D01*
X151748202Y-101734571D01*
X152452000Y-101949215D01*
X152452000Y-110366663D01*
X152332789Y-110317162D01*
X152103815Y-110316963D01*
X152075162Y-110164683D01*
X151936090Y-109948559D01*
X151723890Y-109803569D01*
X151472000Y-109752560D01*
X151082361Y-109752560D01*
X151070148Y-109691161D01*
X150905401Y-109444599D01*
X150508242Y-109047440D01*
X151472000Y-109047440D01*
X151707317Y-109003162D01*
X151923441Y-108864090D01*
X152068431Y-108651890D01*
X152119440Y-108400000D01*
X152119440Y-107500000D01*
X152075162Y-107264683D01*
X151936090Y-107048559D01*
X151723890Y-106903569D01*
X151472000Y-106852560D01*
X151469793Y-106852560D01*
X151669441Y-106724090D01*
X151814431Y-106511890D01*
X151865440Y-106260000D01*
X151865440Y-104560000D01*
X151821162Y-104324683D01*
X151682090Y-104108559D01*
X151469890Y-103963569D01*
X151413546Y-103952159D01*
X151418054Y-103949147D01*
X151739961Y-103467378D01*
X151853000Y-102899093D01*
X151853000Y-102840907D01*
X151739961Y-102272622D01*
X151418054Y-101790853D01*
X150936285Y-101468946D01*
X150368000Y-101355907D01*
X149799715Y-101468946D01*
X149317946Y-101790853D01*
X149098000Y-102120026D01*
X148878054Y-101790853D01*
X148396285Y-101468946D01*
X147828000Y-101355907D01*
X147259715Y-101468946D01*
X146777946Y-101790853D01*
X146456039Y-102272622D01*
X146382318Y-102643242D01*
X146336603Y-102413418D01*
X146090566Y-102045198D01*
X145722346Y-101799161D01*
X145288000Y-101712764D01*
X144853654Y-101799161D01*
X144485434Y-102045198D01*
X144239397Y-102413418D01*
X144153000Y-102847764D01*
X144153000Y-102892236D01*
X144239397Y-103326582D01*
X144485434Y-103694802D01*
X144853654Y-103940839D01*
X145288000Y-104027236D01*
X145722346Y-103940839D01*
X146090566Y-103694802D01*
X146336603Y-103326582D01*
X146382318Y-103096758D01*
X146448371Y-103428827D01*
X146020599Y-103856599D01*
X145855852Y-104103161D01*
X145798753Y-104390215D01*
X145722346Y-104339161D01*
X145288000Y-104252764D01*
X144853654Y-104339161D01*
X144485434Y-104585198D01*
X144239397Y-104953418D01*
X144153000Y-105387764D01*
X144153000Y-105432236D01*
X144239397Y-105866582D01*
X144485434Y-106234802D01*
X144853654Y-106480839D01*
X145288000Y-106567236D01*
X145722346Y-106480839D01*
X145798753Y-106429785D01*
X145855852Y-106716839D01*
X145946538Y-106852560D01*
X144692000Y-106852560D01*
X144456683Y-106896838D01*
X144422015Y-106919147D01*
X144100434Y-106597566D01*
X144033736Y-106553000D01*
X143829541Y-106416561D01*
X143510000Y-106353000D01*
X143373670Y-106353000D01*
X143550566Y-106234802D01*
X143796603Y-105866582D01*
X143883000Y-105432236D01*
X143883000Y-105387764D01*
X143796603Y-104953418D01*
X143550566Y-104585198D01*
X143182346Y-104339161D01*
X142748000Y-104252764D01*
X142313654Y-104339161D01*
X141945434Y-104585198D01*
X141699397Y-104953418D01*
X141653682Y-105183242D01*
X141579961Y-104812622D01*
X141258054Y-104330853D01*
X140776285Y-104008946D01*
X140538117Y-103961571D01*
X140642346Y-103940839D01*
X141010566Y-103694802D01*
X141256603Y-103326582D01*
X141343000Y-102892236D01*
X141343000Y-102847764D01*
X141613000Y-102847764D01*
X141613000Y-102892236D01*
X141699397Y-103326582D01*
X141945434Y-103694802D01*
X142313654Y-103940839D01*
X142748000Y-104027236D01*
X143182346Y-103940839D01*
X143550566Y-103694802D01*
X143796603Y-103326582D01*
X143883000Y-102892236D01*
X143883000Y-102847764D01*
X143796603Y-102413418D01*
X143550566Y-102045198D01*
X143182346Y-101799161D01*
X142748000Y-101712764D01*
X142313654Y-101799161D01*
X141945434Y-102045198D01*
X141699397Y-102413418D01*
X141613000Y-102847764D01*
X141343000Y-102847764D01*
X141256603Y-102413418D01*
X141010566Y-102045198D01*
X140642346Y-101799161D01*
X140208000Y-101712764D01*
X139773654Y-101799161D01*
X139405434Y-102045198D01*
X139159397Y-102413418D01*
X139073000Y-102847764D01*
X139073000Y-102892236D01*
X139159397Y-103326582D01*
X139405434Y-103694802D01*
X139773654Y-103940839D01*
X139877883Y-103961571D01*
X139639715Y-104008946D01*
X139157946Y-104330853D01*
X138836039Y-104812622D01*
X138762318Y-105183242D01*
X138716603Y-104953418D01*
X138470566Y-104585198D01*
X138102346Y-104339161D01*
X137668000Y-104252764D01*
X137233654Y-104339161D01*
X136865434Y-104585198D01*
X136619397Y-104953418D01*
X136533000Y-105387764D01*
X136533000Y-105432236D01*
X136583132Y-105684264D01*
X136471000Y-105572132D01*
X136471000Y-103632000D01*
X136465692Y-103605317D01*
X136407440Y-103312460D01*
X136226434Y-103041566D01*
X135798868Y-102614000D01*
X136398000Y-102614000D01*
X136586976Y-102576410D01*
X136533000Y-102847764D01*
X136533000Y-102892236D01*
X136619397Y-103326582D01*
X136865434Y-103694802D01*
X137233654Y-103940839D01*
X137668000Y-104027236D01*
X138102346Y-103940839D01*
X138470566Y-103694802D01*
X138716603Y-103326582D01*
X138803000Y-102892236D01*
X138803000Y-102847764D01*
X138716603Y-102413418D01*
X138470566Y-102045198D01*
X138102346Y-101799161D01*
X137668000Y-101712764D01*
X137600639Y-101726163D01*
X139113052Y-100213750D01*
X140501000Y-100213750D01*
X140501000Y-100504309D01*
X140597673Y-100737698D01*
X140776301Y-100916327D01*
X141009690Y-101013000D01*
X141700250Y-101013000D01*
X141859000Y-100854250D01*
X141859000Y-100055000D01*
X140659750Y-100055000D01*
X140501000Y-100213750D01*
X139113052Y-100213750D01*
X139221401Y-100105401D01*
X139386148Y-99858840D01*
X139444000Y-99568000D01*
X139444000Y-99351691D01*
X140501000Y-99351691D01*
X140501000Y-99642250D01*
X140659750Y-99801000D01*
X141859000Y-99801000D01*
X141859000Y-99001750D01*
X141700250Y-98843000D01*
X141009690Y-98843000D01*
X140776301Y-98939673D01*
X140597673Y-99118302D01*
X140501000Y-99351691D01*
X139444000Y-99351691D01*
X139444000Y-98860463D01*
X139476192Y-98828327D01*
X139618838Y-98484799D01*
X139619162Y-98112833D01*
X139477117Y-97769057D01*
X139214327Y-97505808D01*
X138870799Y-97363162D01*
X138530185Y-97362865D01*
X138579482Y-96722000D01*
X140488560Y-96722000D01*
X140488560Y-97478000D01*
X140488560Y-97478000D01*
G37*
X140488560Y-97478000D02*
X140532838Y-97713317D01*
X140671910Y-97929441D01*
X140884110Y-98074431D01*
X141136000Y-98125440D01*
X141355080Y-98125440D01*
X141448599Y-98265401D01*
X142148974Y-98965776D01*
X142113000Y-99001750D01*
X142113000Y-99801000D01*
X142133000Y-99801000D01*
X142133000Y-100055000D01*
X142113000Y-100055000D01*
X142113000Y-100854250D01*
X142271750Y-101013000D01*
X142962310Y-101013000D01*
X143195699Y-100916327D01*
X143374327Y-100737698D01*
X143387073Y-100706925D01*
X143465910Y-100829441D01*
X143678110Y-100974431D01*
X143930000Y-101025440D01*
X145630000Y-101025440D01*
X145865317Y-100981162D01*
X146081441Y-100842090D01*
X146177543Y-100701440D01*
X146259910Y-100829441D01*
X146472110Y-100974431D01*
X146724000Y-101025440D01*
X148424000Y-101025440D01*
X148659317Y-100981162D01*
X148875441Y-100842090D01*
X149020431Y-100629890D01*
X149071440Y-100378000D01*
X149071440Y-100355508D01*
X149329673Y-100614192D01*
X149673201Y-100756838D01*
X150045167Y-100757162D01*
X150388943Y-100615117D01*
X150451357Y-100552812D01*
X150559681Y-100756202D01*
X150735105Y-100970610D01*
X151504081Y-101603616D01*
X151617247Y-101664322D01*
X151748202Y-101734571D01*
X152452000Y-101949215D01*
X152452000Y-110366663D01*
X152332789Y-110317162D01*
X152103815Y-110316963D01*
X152075162Y-110164683D01*
X151936090Y-109948559D01*
X151723890Y-109803569D01*
X151472000Y-109752560D01*
X151082361Y-109752560D01*
X151070148Y-109691161D01*
X150905401Y-109444599D01*
X150508242Y-109047440D01*
X151472000Y-109047440D01*
X151707317Y-109003162D01*
X151923441Y-108864090D01*
X152068431Y-108651890D01*
X152119440Y-108400000D01*
X152119440Y-107500000D01*
X152075162Y-107264683D01*
X151936090Y-107048559D01*
X151723890Y-106903569D01*
X151472000Y-106852560D01*
X151469793Y-106852560D01*
X151669441Y-106724090D01*
X151814431Y-106511890D01*
X151865440Y-106260000D01*
X151865440Y-104560000D01*
X151821162Y-104324683D01*
X151682090Y-104108559D01*
X151469890Y-103963569D01*
X151413546Y-103952159D01*
X151418054Y-103949147D01*
X151739961Y-103467378D01*
X151853000Y-102899093D01*
X151853000Y-102840907D01*
X151739961Y-102272622D01*
X151418054Y-101790853D01*
X150936285Y-101468946D01*
X150368000Y-101355907D01*
X149799715Y-101468946D01*
X149317946Y-101790853D01*
X149098000Y-102120026D01*
X148878054Y-101790853D01*
X148396285Y-101468946D01*
X147828000Y-101355907D01*
X147259715Y-101468946D01*
X146777946Y-101790853D01*
X146456039Y-102272622D01*
X146382318Y-102643242D01*
X146336603Y-102413418D01*
X146090566Y-102045198D01*
X145722346Y-101799161D01*
X145288000Y-101712764D01*
X144853654Y-101799161D01*
X144485434Y-102045198D01*
X144239397Y-102413418D01*
X144153000Y-102847764D01*
X144153000Y-102892236D01*
X144239397Y-103326582D01*
X144485434Y-103694802D01*
X144853654Y-103940839D01*
X145288000Y-104027236D01*
X145722346Y-103940839D01*
X146090566Y-103694802D01*
X146336603Y-103326582D01*
X146382318Y-103096758D01*
X146448371Y-103428827D01*
X146020599Y-103856599D01*
X145855852Y-104103161D01*
X145798753Y-104390215D01*
X145722346Y-104339161D01*
X145288000Y-104252764D01*
X144853654Y-104339161D01*
X144485434Y-104585198D01*
X144239397Y-104953418D01*
X144153000Y-105387764D01*
X144153000Y-105432236D01*
X144239397Y-105866582D01*
X144485434Y-106234802D01*
X144853654Y-106480839D01*
X145288000Y-106567236D01*
X145722346Y-106480839D01*
X145798753Y-106429785D01*
X145855852Y-106716839D01*
X145946538Y-106852560D01*
X144692000Y-106852560D01*
X144456683Y-106896838D01*
X144422015Y-106919147D01*
X144100434Y-106597566D01*
X144033736Y-106553000D01*
X143829541Y-106416561D01*
X143510000Y-106353000D01*
X143373670Y-106353000D01*
X143550566Y-106234802D01*
X143796603Y-105866582D01*
X143883000Y-105432236D01*
X143883000Y-105387764D01*
X143796603Y-104953418D01*
X143550566Y-104585198D01*
X143182346Y-104339161D01*
X142748000Y-104252764D01*
X142313654Y-104339161D01*
X141945434Y-104585198D01*
X141699397Y-104953418D01*
X141653682Y-105183242D01*
X141579961Y-104812622D01*
X141258054Y-104330853D01*
X140776285Y-104008946D01*
X140538117Y-103961571D01*
X140642346Y-103940839D01*
X141010566Y-103694802D01*
X141256603Y-103326582D01*
X141343000Y-102892236D01*
X141343000Y-102847764D01*
X141613000Y-102847764D01*
X141613000Y-102892236D01*
X141699397Y-103326582D01*
X141945434Y-103694802D01*
X142313654Y-103940839D01*
X142748000Y-104027236D01*
X143182346Y-103940839D01*
X143550566Y-103694802D01*
X143796603Y-103326582D01*
X143883000Y-102892236D01*
X143883000Y-102847764D01*
X143796603Y-102413418D01*
X143550566Y-102045198D01*
X143182346Y-101799161D01*
X142748000Y-101712764D01*
X142313654Y-101799161D01*
X141945434Y-102045198D01*
X141699397Y-102413418D01*
X141613000Y-102847764D01*
X141343000Y-102847764D01*
X141256603Y-102413418D01*
X141010566Y-102045198D01*
X140642346Y-101799161D01*
X140208000Y-101712764D01*
X139773654Y-101799161D01*
X139405434Y-102045198D01*
X139159397Y-102413418D01*
X139073000Y-102847764D01*
X139073000Y-102892236D01*
X139159397Y-103326582D01*
X139405434Y-103694802D01*
X139773654Y-103940839D01*
X139877883Y-103961571D01*
X139639715Y-104008946D01*
X139157946Y-104330853D01*
X138836039Y-104812622D01*
X138762318Y-105183242D01*
X138716603Y-104953418D01*
X138470566Y-104585198D01*
X138102346Y-104339161D01*
X137668000Y-104252764D01*
X137233654Y-104339161D01*
X136865434Y-104585198D01*
X136619397Y-104953418D01*
X136533000Y-105387764D01*
X136533000Y-105432236D01*
X136583132Y-105684264D01*
X136471000Y-105572132D01*
X136471000Y-103632000D01*
X136465692Y-103605317D01*
X136407440Y-103312460D01*
X136226434Y-103041566D01*
X135798868Y-102614000D01*
X136398000Y-102614000D01*
X136586976Y-102576410D01*
X136533000Y-102847764D01*
X136533000Y-102892236D01*
X136619397Y-103326582D01*
X136865434Y-103694802D01*
X137233654Y-103940839D01*
X137668000Y-104027236D01*
X138102346Y-103940839D01*
X138470566Y-103694802D01*
X138716603Y-103326582D01*
X138803000Y-102892236D01*
X138803000Y-102847764D01*
X138716603Y-102413418D01*
X138470566Y-102045198D01*
X138102346Y-101799161D01*
X137668000Y-101712764D01*
X137600639Y-101726163D01*
X139113052Y-100213750D01*
X140501000Y-100213750D01*
X140501000Y-100504309D01*
X140597673Y-100737698D01*
X140776301Y-100916327D01*
X141009690Y-101013000D01*
X141700250Y-101013000D01*
X141859000Y-100854250D01*
X141859000Y-100055000D01*
X140659750Y-100055000D01*
X140501000Y-100213750D01*
X139113052Y-100213750D01*
X139221401Y-100105401D01*
X139386148Y-99858840D01*
X139444000Y-99568000D01*
X139444000Y-99351691D01*
X140501000Y-99351691D01*
X140501000Y-99642250D01*
X140659750Y-99801000D01*
X141859000Y-99801000D01*
X141859000Y-99001750D01*
X141700250Y-98843000D01*
X141009690Y-98843000D01*
X140776301Y-98939673D01*
X140597673Y-99118302D01*
X140501000Y-99351691D01*
X139444000Y-99351691D01*
X139444000Y-98860463D01*
X139476192Y-98828327D01*
X139618838Y-98484799D01*
X139619162Y-98112833D01*
X139477117Y-97769057D01*
X139214327Y-97505808D01*
X138870799Y-97363162D01*
X138530185Y-97362865D01*
X138579482Y-96722000D01*
X140488560Y-96722000D01*
X140488560Y-97478000D01*
G36*
X130535057Y-97250883D02*
X130271808Y-97513673D01*
X130129162Y-97857201D01*
X130128838Y-98229167D01*
X130270883Y-98572943D01*
X130304000Y-98606118D01*
X130304000Y-99314000D01*
X130361852Y-99604839D01*
X130526599Y-99851401D01*
X132397758Y-101722560D01*
X132296000Y-101722560D01*
X132060683Y-101766838D01*
X131953232Y-101835981D01*
X131861890Y-101773569D01*
X131610000Y-101722560D01*
X130843428Y-101722560D01*
X130638434Y-101517566D01*
X130565669Y-101468946D01*
X130367541Y-101336561D01*
X130048000Y-101273000D01*
X129032000Y-101273000D01*
X128712459Y-101336561D01*
X128514331Y-101468946D01*
X128441566Y-101517566D01*
X127974572Y-101984560D01*
X124408000Y-101984560D01*
X124408000Y-97230000D01*
X130585598Y-97230000D01*
X130535057Y-97250883D01*
X130535057Y-97250883D01*
G37*
X130535057Y-97250883D02*
X130271808Y-97513673D01*
X130129162Y-97857201D01*
X130128838Y-98229167D01*
X130270883Y-98572943D01*
X130304000Y-98606118D01*
X130304000Y-99314000D01*
X130361852Y-99604839D01*
X130526599Y-99851401D01*
X132397758Y-101722560D01*
X132296000Y-101722560D01*
X132060683Y-101766838D01*
X131953232Y-101835981D01*
X131861890Y-101773569D01*
X131610000Y-101722560D01*
X130843428Y-101722560D01*
X130638434Y-101517566D01*
X130565669Y-101468946D01*
X130367541Y-101336561D01*
X130048000Y-101273000D01*
X129032000Y-101273000D01*
X128712459Y-101336561D01*
X128514331Y-101468946D01*
X128441566Y-101517566D01*
X127974572Y-101984560D01*
X124408000Y-101984560D01*
X124408000Y-97230000D01*
X130585598Y-97230000D01*
X130535057Y-97250883D01*
M02*
