G04 #@! TF.FileFunction,Legend,Bot*
%FSLAX46Y46*%
G04 Gerber Fmt 4.6, Leading zero omitted, Abs format (unit mm)*
G04 Created by KiCad (PCBNEW 4.0.7) date 12/01/17 22:29:32*
%MOMM*%
%LPD*%
G01*
G04 APERTURE LIST*
%ADD10C,0.100000*%
%ADD11C,0.120000*%
%ADD12C,0.150000*%
%ADD13C,0.130000*%
G04 APERTURE END LIST*
D10*
D11*
X136338000Y-106740000D02*
X136338000Y-101540000D01*
X149098000Y-106740000D02*
X136338000Y-106740000D01*
X151698000Y-101540000D02*
X136338000Y-101540000D01*
X149098000Y-106740000D02*
X149098000Y-104140000D01*
X149098000Y-104140000D02*
X151698000Y-104140000D01*
X151698000Y-104140000D02*
X151698000Y-101540000D01*
X150368000Y-106740000D02*
X151698000Y-106740000D01*
X151698000Y-106740000D02*
X151698000Y-105410000D01*
X140916000Y-97478000D02*
X140916000Y-99478000D01*
X143056000Y-99478000D02*
X143056000Y-97478000D01*
X148644000Y-99478000D02*
X148644000Y-97478000D01*
X146504000Y-97478000D02*
X146504000Y-99478000D01*
X143710000Y-97478000D02*
X143710000Y-99478000D01*
X145850000Y-99478000D02*
X145850000Y-97478000D01*
X146612000Y-110400000D02*
X146612000Y-108400000D01*
X144472000Y-108400000D02*
X144472000Y-110400000D01*
X151692000Y-110400000D02*
X151692000Y-108400000D01*
X149552000Y-108400000D02*
X149552000Y-110400000D01*
X149152000Y-110400000D02*
X149152000Y-108400000D01*
X147012000Y-108400000D02*
X147012000Y-110400000D01*
X132076000Y-105370000D02*
X132076000Y-103370000D01*
X134116000Y-103370000D02*
X134116000Y-105370000D01*
X129790000Y-105370000D02*
X129790000Y-103370000D01*
X131830000Y-103370000D02*
X131830000Y-105370000D01*
D12*
X146010381Y-103806667D02*
X146724667Y-103806667D01*
X146867524Y-103759047D01*
X146962762Y-103663809D01*
X147010381Y-103520952D01*
X147010381Y-103425714D01*
X147010381Y-104806667D02*
X147010381Y-104235238D01*
X147010381Y-104520952D02*
X146010381Y-104520952D01*
X146153238Y-104425714D01*
X146248476Y-104330476D01*
X146296095Y-104235238D01*
X139136381Y-98385334D02*
X138660190Y-98052000D01*
X139136381Y-97813905D02*
X138136381Y-97813905D01*
X138136381Y-98194858D01*
X138184000Y-98290096D01*
X138231619Y-98337715D01*
X138326857Y-98385334D01*
X138469714Y-98385334D01*
X138564952Y-98337715D01*
X138612571Y-98290096D01*
X138660190Y-98194858D01*
X138660190Y-97813905D01*
X139136381Y-99337715D02*
X139136381Y-98766286D01*
X139136381Y-99052000D02*
X138136381Y-99052000D01*
X138279238Y-98956762D01*
X138374476Y-98861524D01*
X138422095Y-98766286D01*
D13*
X142519333Y-98328000D02*
X142519333Y-98794667D01*
X142686000Y-98061333D02*
X142852667Y-98561333D01*
X142419333Y-98561333D01*
X142219333Y-98094667D02*
X141752666Y-98094667D01*
X142052666Y-98794667D01*
X141152666Y-98094667D02*
X141485999Y-98094667D01*
X141519333Y-98428000D01*
X141485999Y-98394667D01*
X141419333Y-98361333D01*
X141252666Y-98361333D01*
X141185999Y-98394667D01*
X141152666Y-98428000D01*
X141119333Y-98494667D01*
X141119333Y-98661333D01*
X141152666Y-98728000D01*
X141185999Y-98761333D01*
X141252666Y-98794667D01*
X141419333Y-98794667D01*
X141485999Y-98761333D01*
X141519333Y-98728000D01*
D12*
X149804381Y-98385334D02*
X149328190Y-98052000D01*
X149804381Y-97813905D02*
X148804381Y-97813905D01*
X148804381Y-98194858D01*
X148852000Y-98290096D01*
X148899619Y-98337715D01*
X148994857Y-98385334D01*
X149137714Y-98385334D01*
X149232952Y-98337715D01*
X149280571Y-98290096D01*
X149328190Y-98194858D01*
X149328190Y-97813905D01*
X148899619Y-98766286D02*
X148852000Y-98813905D01*
X148804381Y-98909143D01*
X148804381Y-99147239D01*
X148852000Y-99242477D01*
X148899619Y-99290096D01*
X148994857Y-99337715D01*
X149090095Y-99337715D01*
X149232952Y-99290096D01*
X149804381Y-98718667D01*
X149804381Y-99337715D01*
D13*
X148057333Y-98328000D02*
X148057333Y-98794667D01*
X148224000Y-98061333D02*
X148390667Y-98561333D01*
X147957333Y-98561333D01*
X147690666Y-98794667D02*
X147690666Y-98094667D01*
X147624000Y-98528000D02*
X147424000Y-98794667D01*
X147424000Y-98328000D02*
X147690666Y-98594667D01*
X147190666Y-98094667D02*
X146723999Y-98094667D01*
X147023999Y-98794667D01*
D12*
X140660381Y-98385334D02*
X140184190Y-98052000D01*
X140660381Y-97813905D02*
X139660381Y-97813905D01*
X139660381Y-98194858D01*
X139708000Y-98290096D01*
X139755619Y-98337715D01*
X139850857Y-98385334D01*
X139993714Y-98385334D01*
X140088952Y-98337715D01*
X140136571Y-98290096D01*
X140184190Y-98194858D01*
X140184190Y-97813905D01*
X139660381Y-98718667D02*
X139660381Y-99337715D01*
X140041333Y-99004381D01*
X140041333Y-99147239D01*
X140088952Y-99242477D01*
X140136571Y-99290096D01*
X140231810Y-99337715D01*
X140469905Y-99337715D01*
X140565143Y-99290096D01*
X140612762Y-99242477D01*
X140660381Y-99147239D01*
X140660381Y-98861524D01*
X140612762Y-98766286D01*
X140565143Y-98718667D01*
D13*
X145346667Y-98168667D02*
X144880000Y-98168667D01*
X145180000Y-98868667D01*
X144280000Y-98168667D02*
X144613333Y-98168667D01*
X144646667Y-98502000D01*
X144613333Y-98468667D01*
X144546667Y-98435333D01*
X144380000Y-98435333D01*
X144313333Y-98468667D01*
X144280000Y-98502000D01*
X144246667Y-98568667D01*
X144246667Y-98735333D01*
X144280000Y-98802000D01*
X144313333Y-98835333D01*
X144380000Y-98868667D01*
X144546667Y-98868667D01*
X144613333Y-98835333D01*
X144646667Y-98802000D01*
D12*
X140152381Y-107783334D02*
X139676190Y-107450000D01*
X140152381Y-107211905D02*
X139152381Y-107211905D01*
X139152381Y-107592858D01*
X139200000Y-107688096D01*
X139247619Y-107735715D01*
X139342857Y-107783334D01*
X139485714Y-107783334D01*
X139580952Y-107735715D01*
X139628571Y-107688096D01*
X139676190Y-107592858D01*
X139676190Y-107211905D01*
X139152381Y-108116667D02*
X139152381Y-108783334D01*
X140152381Y-108354762D01*
D13*
X146025333Y-109324000D02*
X146025333Y-109790667D01*
X146192000Y-109057333D02*
X146358667Y-109557333D01*
X145925333Y-109557333D01*
X145658666Y-109790667D02*
X145658666Y-109090667D01*
X145592000Y-109524000D02*
X145392000Y-109790667D01*
X145392000Y-109324000D02*
X145658666Y-109590667D01*
X145158666Y-109090667D02*
X144691999Y-109090667D01*
X144991999Y-109790667D01*
D12*
X152852381Y-109307334D02*
X152376190Y-108974000D01*
X152852381Y-108735905D02*
X151852381Y-108735905D01*
X151852381Y-109116858D01*
X151900000Y-109212096D01*
X151947619Y-109259715D01*
X152042857Y-109307334D01*
X152185714Y-109307334D01*
X152280952Y-109259715D01*
X152328571Y-109212096D01*
X152376190Y-109116858D01*
X152376190Y-108735905D01*
X152280952Y-109878762D02*
X152233333Y-109783524D01*
X152185714Y-109735905D01*
X152090476Y-109688286D01*
X152042857Y-109688286D01*
X151947619Y-109735905D01*
X151900000Y-109783524D01*
X151852381Y-109878762D01*
X151852381Y-110069239D01*
X151900000Y-110164477D01*
X151947619Y-110212096D01*
X152042857Y-110259715D01*
X152090476Y-110259715D01*
X152185714Y-110212096D01*
X152233333Y-110164477D01*
X152280952Y-110069239D01*
X152280952Y-109878762D01*
X152328571Y-109783524D01*
X152376190Y-109735905D01*
X152471429Y-109688286D01*
X152661905Y-109688286D01*
X152757143Y-109735905D01*
X152804762Y-109783524D01*
X152852381Y-109878762D01*
X152852381Y-110069239D01*
X152804762Y-110164477D01*
X152757143Y-110212096D01*
X152661905Y-110259715D01*
X152471429Y-110259715D01*
X152376190Y-110212096D01*
X152328571Y-110164477D01*
X152280952Y-110069239D01*
D13*
X151188667Y-109016667D02*
X150722000Y-109016667D01*
X151022000Y-109716667D01*
X150122000Y-109016667D02*
X150455333Y-109016667D01*
X150488667Y-109350000D01*
X150455333Y-109316667D01*
X150388667Y-109283333D01*
X150222000Y-109283333D01*
X150155333Y-109316667D01*
X150122000Y-109350000D01*
X150088667Y-109416667D01*
X150088667Y-109583333D01*
X150122000Y-109650000D01*
X150155333Y-109683333D01*
X150222000Y-109716667D01*
X150388667Y-109716667D01*
X150455333Y-109683333D01*
X150488667Y-109650000D01*
D12*
X141676381Y-107783333D02*
X141200190Y-107449999D01*
X141676381Y-107211904D02*
X140676381Y-107211904D01*
X140676381Y-107592857D01*
X140724000Y-107688095D01*
X140771619Y-107735714D01*
X140866857Y-107783333D01*
X141009714Y-107783333D01*
X141104952Y-107735714D01*
X141152571Y-107688095D01*
X141200190Y-107592857D01*
X141200190Y-107211904D01*
X141676381Y-108735714D02*
X141676381Y-108164285D01*
X141676381Y-108449999D02*
X140676381Y-108449999D01*
X140819238Y-108354761D01*
X140914476Y-108259523D01*
X140962095Y-108164285D01*
X140676381Y-109354761D02*
X140676381Y-109450000D01*
X140724000Y-109545238D01*
X140771619Y-109592857D01*
X140866857Y-109640476D01*
X141057333Y-109688095D01*
X141295429Y-109688095D01*
X141485905Y-109640476D01*
X141581143Y-109592857D01*
X141628762Y-109545238D01*
X141676381Y-109450000D01*
X141676381Y-109354761D01*
X141628762Y-109259523D01*
X141581143Y-109211904D01*
X141485905Y-109164285D01*
X141295429Y-109116666D01*
X141057333Y-109116666D01*
X140866857Y-109164285D01*
X140771619Y-109211904D01*
X140724000Y-109259523D01*
X140676381Y-109354761D01*
D13*
X148648667Y-109090667D02*
X148182000Y-109090667D01*
X148482000Y-109790667D01*
X147582000Y-109090667D02*
X147915333Y-109090667D01*
X147948667Y-109424000D01*
X147915333Y-109390667D01*
X147848667Y-109357333D01*
X147682000Y-109357333D01*
X147615333Y-109390667D01*
X147582000Y-109424000D01*
X147548667Y-109490667D01*
X147548667Y-109657333D01*
X147582000Y-109724000D01*
X147615333Y-109757333D01*
X147682000Y-109790667D01*
X147848667Y-109790667D01*
X147915333Y-109757333D01*
X147948667Y-109724000D01*
D12*
X131825904Y-107450000D02*
X131921142Y-107402381D01*
X132063999Y-107402381D01*
X132206857Y-107450000D01*
X132302095Y-107545238D01*
X132349714Y-107640476D01*
X132397333Y-107830952D01*
X132397333Y-107973810D01*
X132349714Y-108164286D01*
X132302095Y-108259524D01*
X132206857Y-108354762D01*
X132063999Y-108402381D01*
X131968761Y-108402381D01*
X131825904Y-108354762D01*
X131778285Y-108307143D01*
X131778285Y-107973810D01*
X131968761Y-107973810D01*
X131349714Y-108402381D02*
X131349714Y-107402381D01*
X130778285Y-108402381D01*
X130778285Y-107402381D01*
X130302095Y-108402381D02*
X130302095Y-107402381D01*
X130064000Y-107402381D01*
X129921142Y-107450000D01*
X129825904Y-107545238D01*
X129778285Y-107640476D01*
X129730666Y-107830952D01*
X129730666Y-107973810D01*
X129778285Y-108164286D01*
X129825904Y-108259524D01*
X129921142Y-108354762D01*
X130064000Y-108402381D01*
X130302095Y-108402381D01*
X127523714Y-100798381D02*
X127190381Y-101798381D01*
X126857047Y-100798381D01*
X126571333Y-101750762D02*
X126428476Y-101798381D01*
X126190380Y-101798381D01*
X126095142Y-101750762D01*
X126047523Y-101703143D01*
X125999904Y-101607905D01*
X125999904Y-101512667D01*
X126047523Y-101417429D01*
X126095142Y-101369810D01*
X126190380Y-101322190D01*
X126380857Y-101274571D01*
X126476095Y-101226952D01*
X126523714Y-101179333D01*
X126571333Y-101084095D01*
X126571333Y-100988857D01*
X126523714Y-100893619D01*
X126476095Y-100846000D01*
X126380857Y-100798381D01*
X126142761Y-100798381D01*
X125999904Y-100846000D01*
X125618952Y-101750762D02*
X125476095Y-101798381D01*
X125237999Y-101798381D01*
X125142761Y-101750762D01*
X125095142Y-101703143D01*
X125047523Y-101607905D01*
X125047523Y-101512667D01*
X125095142Y-101417429D01*
X125142761Y-101369810D01*
X125237999Y-101322190D01*
X125428476Y-101274571D01*
X125523714Y-101226952D01*
X125571333Y-101179333D01*
X125618952Y-101084095D01*
X125618952Y-100988857D01*
X125571333Y-100893619D01*
X125523714Y-100846000D01*
X125428476Y-100798381D01*
X125190380Y-100798381D01*
X125047523Y-100846000D01*
X132691143Y-100671334D02*
X132738762Y-100623715D01*
X132786381Y-100480858D01*
X132786381Y-100385620D01*
X132738762Y-100242762D01*
X132643524Y-100147524D01*
X132548286Y-100099905D01*
X132357810Y-100052286D01*
X132214952Y-100052286D01*
X132024476Y-100099905D01*
X131929238Y-100147524D01*
X131834000Y-100242762D01*
X131786381Y-100385620D01*
X131786381Y-100480858D01*
X131834000Y-100623715D01*
X131881619Y-100671334D01*
X131881619Y-101052286D02*
X131834000Y-101099905D01*
X131786381Y-101195143D01*
X131786381Y-101433239D01*
X131834000Y-101528477D01*
X131881619Y-101576096D01*
X131976857Y-101623715D01*
X132072095Y-101623715D01*
X132214952Y-101576096D01*
X132786381Y-101004667D01*
X132786381Y-101623715D01*
D11*
X134687334Y-104710667D02*
X135087334Y-104710667D01*
X134887334Y-104710667D02*
X134887334Y-104010667D01*
X134954000Y-104110667D01*
X135020667Y-104177333D01*
X135087334Y-104210667D01*
X134254000Y-104010667D02*
X134187333Y-104010667D01*
X134120667Y-104044000D01*
X134087333Y-104077333D01*
X134054000Y-104144000D01*
X134020667Y-104277333D01*
X134020667Y-104444000D01*
X134054000Y-104577333D01*
X134087333Y-104644000D01*
X134120667Y-104677333D01*
X134187333Y-104710667D01*
X134254000Y-104710667D01*
X134320667Y-104677333D01*
X134354000Y-104644000D01*
X134387333Y-104577333D01*
X134420667Y-104444000D01*
X134420667Y-104277333D01*
X134387333Y-104144000D01*
X134354000Y-104077333D01*
X134320667Y-104044000D01*
X134254000Y-104010667D01*
X133587333Y-104010667D02*
X133520666Y-104010667D01*
X133454000Y-104044000D01*
X133420666Y-104077333D01*
X133387333Y-104144000D01*
X133354000Y-104277333D01*
X133354000Y-104444000D01*
X133387333Y-104577333D01*
X133420666Y-104644000D01*
X133454000Y-104677333D01*
X133520666Y-104710667D01*
X133587333Y-104710667D01*
X133654000Y-104677333D01*
X133687333Y-104644000D01*
X133720666Y-104577333D01*
X133754000Y-104444000D01*
X133754000Y-104277333D01*
X133720666Y-104144000D01*
X133687333Y-104077333D01*
X133654000Y-104044000D01*
X133587333Y-104010667D01*
X133053999Y-104244000D02*
X133053999Y-104710667D01*
X133053999Y-104310667D02*
X133020666Y-104277333D01*
X132953999Y-104244000D01*
X132853999Y-104244000D01*
X132787333Y-104277333D01*
X132753999Y-104344000D01*
X132753999Y-104710667D01*
X132187333Y-104344000D02*
X132420666Y-104344000D01*
X132420666Y-104710667D02*
X132420666Y-104010667D01*
X132087333Y-104010667D01*
D12*
X131167143Y-100671334D02*
X131214762Y-100623715D01*
X131262381Y-100480858D01*
X131262381Y-100385620D01*
X131214762Y-100242762D01*
X131119524Y-100147524D01*
X131024286Y-100099905D01*
X130833810Y-100052286D01*
X130690952Y-100052286D01*
X130500476Y-100099905D01*
X130405238Y-100147524D01*
X130310000Y-100242762D01*
X130262381Y-100385620D01*
X130262381Y-100480858D01*
X130310000Y-100623715D01*
X130357619Y-100671334D01*
X130262381Y-101004667D02*
X130262381Y-101623715D01*
X130643333Y-101290381D01*
X130643333Y-101433239D01*
X130690952Y-101528477D01*
X130738571Y-101576096D01*
X130833810Y-101623715D01*
X131071905Y-101623715D01*
X131167143Y-101576096D01*
X131214762Y-101528477D01*
X131262381Y-101433239D01*
X131262381Y-101147524D01*
X131214762Y-101052286D01*
X131167143Y-101004667D01*
D11*
X131706000Y-104053333D02*
X131672666Y-104020000D01*
X131606000Y-103986667D01*
X131439333Y-103986667D01*
X131372666Y-104020000D01*
X131339333Y-104053333D01*
X131306000Y-104120000D01*
X131306000Y-104186667D01*
X131339333Y-104286667D01*
X131739333Y-104686667D01*
X131306000Y-104686667D01*
X131039333Y-104053333D02*
X131005999Y-104020000D01*
X130939333Y-103986667D01*
X130772666Y-103986667D01*
X130705999Y-104020000D01*
X130672666Y-104053333D01*
X130639333Y-104120000D01*
X130639333Y-104186667D01*
X130672666Y-104286667D01*
X131072666Y-104686667D01*
X130639333Y-104686667D01*
X130039332Y-104220000D02*
X130039332Y-104686667D01*
X130339332Y-104220000D02*
X130339332Y-104586667D01*
X130305999Y-104653333D01*
X130239332Y-104686667D01*
X130139332Y-104686667D01*
X130072666Y-104653333D01*
X130039332Y-104620000D01*
X129472666Y-104320000D02*
X129705999Y-104320000D01*
X129705999Y-104686667D02*
X129705999Y-103986667D01*
X129372666Y-103986667D01*
M02*
