M48
INCH,TZ
T1C0.016
T2C0.039
%
G90
G05
T1
X50800Y-39800
X50900Y-40800
X51000Y-42200
X51100Y-39000
X51200Y-42500
X51600Y-38600
X52500Y-42600
X52900Y-41000
X53300Y-42600
X53800Y-41000
X53900Y-42900
X54400Y-44000
X54600Y-38700
X54600Y-39900
X55500Y-42500
X55500Y-44000
X55700Y-43500
X56300Y-42600
X56600Y-43700
X56700Y-39900
X57000Y-38800
X57800Y-43200
X58500Y-43300
X58700Y-42100
X59000Y-39300
X59900Y-43800
T2
X55200Y-41500
X58200Y-40500
X59200Y-40500
X59200Y-41500
T0
M30
