M48
INCH,TZ
T1C0.016
T2C0.039
%
G90
G05
T1
X50800Y-39800
X50800Y-40800
X51000Y-42200
X51100Y-39000
X51300Y-38600
X52500Y-42600
X52900Y-41000
X53700Y-42900
X53760Y-41050
X54600Y-39900
X54700Y-38100
X55200Y-44100
X56200Y-41900
X56500Y-43100
X56700Y-39900
X57000Y-42900
X57000Y-43400
X57000Y-43900
X57700Y-41900
X57800Y-40900
X58500Y-43200
X59200Y-44100
X60100Y-41700
X60200Y-42900
X60200Y-44100
T2
X54200Y-40400
X54200Y-41400
X55200Y-40400
X55200Y-41400
X56200Y-40400
X56200Y-41400
X57200Y-40400
X57200Y-41400
X58200Y-40400
X58200Y-41400
X59200Y-40400
X59200Y-41400
T0
M30
